<svg width="121" height="38" viewBox="0 0 121 38" fill="none" xmlns="http://www.w3.org/2000/svg">
<g clip-path="url(#clip0_1270_370)">
<path d="M33.0809 20.0722C33.0461 20.2677 33.0077 20.4633 32.9656 20.6591C32.9979 20.503 33.0267 20.3475 33.0521 20.1915C33.0703 20.0805 33.0869 19.9698 33.1018 19.8595C33.1127 19.779 33.1226 19.699 33.1321 19.619C33.1385 19.5604 33.1455 19.5022 33.151 19.4446C33.1584 19.377 33.1644 19.3094 33.1698 19.2423C33.1753 19.1753 33.1798 19.1226 33.1838 19.0625C33.1838 19.0316 33.1887 19.0003 33.1897 18.9695C33.1932 18.9258 33.1952 18.8821 33.1977 18.8384C33.2011 18.7713 33.2036 18.7042 33.2061 18.6366C33.2086 18.569 33.2101 18.5029 33.2116 18.4378C33.2131 18.3727 33.2116 18.3131 33.2116 18.251C33.2116 18.2276 33.2116 18.2048 33.2116 18.1824V18.0477C33.2116 18.0294 33.2116 18.011 33.2116 17.9921C33.2116 17.9424 33.2116 17.8927 33.2076 17.843C33.2076 17.8376 33.2076 17.8321 33.2076 17.8256C33.2076 17.766 33.2031 17.7064 33.2002 17.6462C33.2002 17.6338 33.2002 17.6219 33.2002 17.61C33.1977 17.5603 33.1947 17.5081 33.1907 17.4574C33.1907 17.4408 33.1897 17.4243 33.1877 17.4077C33.1843 17.3521 33.1803 17.2969 33.1753 17.2417C33.1698 17.1757 33.1644 17.1096 33.1574 17.043C33.1524 16.9908 33.147 16.9396 33.141 16.8884C33.1351 16.8373 33.1291 16.7781 33.1216 16.723C33.1216 16.7155 33.1216 16.7081 33.1187 16.7011C33.1147 16.6658 33.1097 16.631 33.1047 16.5962C33.0983 16.5466 33.0918 16.5023 33.0849 16.4551C33.0764 16.398 33.0675 16.3408 33.058 16.2842L33.0476 16.2221C33.0393 16.1714 33.0304 16.1207 33.0208 16.07C33.0208 16.066 33.0208 16.0621 33.0208 16.0581C33.0108 16.0044 33.0004 15.9503 32.9895 15.8966C32.9855 15.8742 32.981 15.8524 32.976 15.8305C32.9696 15.7942 32.9616 15.7579 32.9537 15.7217C32.9457 15.6854 32.9408 15.6606 32.9333 15.6297C32.9249 15.5875 32.9149 15.5448 32.9045 15.502C32.9045 15.4916 32.9 15.4817 32.8975 15.4717C32.8876 15.4285 32.8772 15.3858 32.8667 15.3435C32.8588 15.3107 32.8503 15.2784 32.8419 15.2441C32.8334 15.2098 32.8235 15.1721 32.814 15.1368C32.8001 15.0871 32.7857 15.0329 32.7713 14.9823C32.7614 14.946 32.7514 14.9097 32.7405 14.8734C32.7296 14.8372 32.7171 14.7934 32.7047 14.7532C32.7007 14.7383 32.6963 14.7244 32.6918 14.7104C32.6799 14.6707 32.6675 14.6309 32.655 14.5917C32.6451 14.5604 32.6347 14.5296 32.6247 14.4988C32.6148 14.4679 32.6053 14.4386 32.5949 14.4083C32.5845 14.378 32.577 14.3546 32.5676 14.3278C32.5547 14.2886 32.5412 14.2493 32.5263 14.21C32.5204 14.1917 32.5139 14.1733 32.5065 14.1544C32.4915 14.1117 32.4761 14.0689 32.4597 14.0262C32.4523 14.0063 32.4448 13.9859 32.4369 13.9661C32.425 13.9338 32.413 13.902 32.4001 13.8697C32.3872 13.8374 32.3723 13.7986 32.3584 13.7638C32.3514 13.7459 32.344 13.7275 32.3365 13.7096C32.3161 13.66 32.2958 13.6103 32.2744 13.5606C32.253 13.5109 32.2331 13.4612 32.2113 13.4115C32.2008 13.3866 32.1899 13.3618 32.1785 13.3365C32.1641 13.3037 32.1492 13.2714 32.1343 13.2371C32.1094 13.1819 32.0846 13.1278 32.0577 13.0726C32.0413 13.0368 32.0239 13.0005 32.008 12.9643C31.9921 12.928 31.9658 12.8773 31.9434 12.8336C31.9211 12.7898 31.8967 12.7402 31.8729 12.6944C31.8733 12.6935 31.8733 12.6924 31.8729 12.6915C31.8446 12.6353 31.8147 12.5797 31.7849 12.5245C31.7551 12.4693 31.7248 12.4127 31.6935 12.357C31.6622 12.3014 31.6393 12.2576 31.6115 12.2114C31.5986 12.1896 31.5862 12.1672 31.5732 12.1458C31.5539 12.113 31.5345 12.0798 31.5146 12.0465C31.4843 11.9968 31.453 11.9436 31.4217 11.8929C31.4043 11.8636 31.3859 11.8348 31.3675 11.8064C31.3491 11.7781 31.3253 11.7389 31.3029 11.7071L31.2984 11.6996C31.2671 11.6499 31.2353 11.6002 31.203 11.5535C31.1707 11.5068 31.1449 11.4661 31.1146 11.4223C31.0843 11.3786 31.048 11.3254 31.0152 11.2772C31.0102 11.2708 31.0063 11.2643 31.0013 11.2583C30.9799 11.227 30.9576 11.1957 30.9352 11.1654C30.9128 11.1351 30.894 11.1083 30.8731 11.0804C30.8689 11.0741 30.8645 11.0679 30.8597 11.0621C30.8259 11.0154 30.7911 10.9691 30.7558 10.9234C30.5676 10.6746 30.3689 10.4336 30.1595 10.2004C30.1307 10.1673 30.1014 10.135 30.0715 10.1035C29.9109 9.92594 29.7452 9.75367 29.5746 9.58671C29.4986 9.51167 29.4216 9.43763 29.3441 9.36657C27.8077 7.94424 25.9276 6.94618 23.8887 6.47052C21.8498 5.99485 19.7222 6.05795 17.715 6.65361C15.7078 7.24927 13.8902 8.35699 12.4409 9.86787C10.9915 11.3788 9.9602 13.2408 9.44841 15.271C9.44195 15.2938 9.43599 15.3167 9.43052 15.34L9.42655 15.3564C9.41214 15.4131 9.39823 15.4702 9.3858 15.5274L9.38183 15.5438C9.37686 15.5666 9.37189 15.5895 9.36742 15.6119C9.36046 15.6427 9.354 15.673 9.34804 15.7033C9.33081 15.7888 9.31524 15.8742 9.30133 15.9597C9.29189 16.0173 9.28244 16.075 9.27499 16.1331V16.1361C9.27052 16.1644 9.26704 16.1928 9.26356 16.2211C9.19125 16.7776 9.18259 17.3406 9.23772 17.8992C9.2407 17.928 9.24368 17.9578 9.24667 17.9876C9.24965 18.0174 9.25313 18.0463 9.2571 18.0756L9.26604 18.1471C9.27598 18.2247 9.28741 18.3017 9.30033 18.3787C9.30878 18.4329 9.31872 18.487 9.32915 18.5412C9.33959 18.5954 9.35102 18.658 9.36394 18.7161C9.3694 18.7449 9.37586 18.7742 9.38282 18.8031C9.39574 18.8612 9.40916 18.9184 9.42407 18.976C9.54513 19.4628 9.71563 19.9361 9.93291 20.3882C9.94533 20.4146 9.95825 20.4414 9.97117 20.4672C9.98409 20.4931 9.99701 20.5199 10.0109 20.5463C10.0248 20.5726 10.0373 20.596 10.0512 20.6243C10.0651 20.6526 10.078 20.674 10.0924 20.7018C10.1068 20.7296 10.1198 20.7515 10.1347 20.7793C10.159 20.824 10.1844 20.8683 10.2097 20.9125C9.14395 19.1151 8.56313 17.0718 8.52408 14.9825C8.48503 12.8933 8.98908 10.8297 9.98691 8.99372C10.9847 7.15775 12.4421 5.61229 14.2165 4.50861C15.9909 3.40493 18.0214 2.78084 20.1093 2.69742C20.237 2.69245 20.3652 2.68897 20.4934 2.68848H20.4969C20.6062 2.68848 20.7146 2.68848 20.8239 2.69146C20.968 2.69146 21.1131 2.69941 21.2567 2.70786C21.3133 2.71084 21.37 2.71432 21.4266 2.71879C21.688 2.73717 21.9484 2.76351 22.2073 2.79979C22.2699 2.80724 22.333 2.81618 22.3956 2.82662C22.4583 2.83706 22.5184 2.8455 22.58 2.85594H22.5865C22.6312 2.86389 22.6769 2.87085 22.7216 2.87979C22.744 2.88377 22.7658 2.88824 22.7882 2.89172C22.8454 2.90215 22.9025 2.91358 22.9591 2.92551C23.0158 2.93743 23.0839 2.95035 23.146 2.96427C23.1957 2.9752 23.2454 2.98613 23.2951 2.99806C23.3766 3.01644 23.459 3.03582 23.5395 3.05669C23.5892 3.06961 23.6429 3.08253 23.6936 3.09645L23.7045 3.09893L23.8859 3.14862C23.947 3.16602 24.0081 3.1839 24.0688 3.20229C24.1294 3.22068 24.19 3.23906 24.2491 3.25844H24.2526C24.3103 3.27633 24.3679 3.29571 24.4246 3.31459L24.4385 3.31907L24.5876 3.36876L24.6228 3.38168C24.679 3.40156 24.7346 3.42143 24.7898 3.44181L24.9433 3.49995L24.9901 3.51833C25.0427 3.53821 25.0944 3.55958 25.1456 3.58094C25.1968 3.60231 25.245 3.62169 25.2947 3.64306C25.3126 3.65051 25.3309 3.65747 25.3483 3.66592C25.3871 3.68231 25.4259 3.69921 25.4641 3.71561L25.5228 3.74095C25.561 3.75785 25.5993 3.77574 25.6375 3.79362L25.7011 3.82245L25.8149 3.87661C25.8328 3.88506 25.8507 3.89351 25.8681 3.90295C25.9143 3.92431 25.959 3.94668 26.0038 3.96953L26.0271 3.98096C26.0738 4.00432 26.121 4.03066 26.1678 4.05351C26.1837 4.06097 26.1991 4.06941 26.2174 4.07836C26.2522 4.09625 26.287 4.11563 26.3218 4.13401L26.3849 4.1678C26.4346 4.19364 26.4788 4.21998 26.525 4.24632C26.5713 4.27266 26.6204 4.29999 26.6672 4.32781C26.6836 4.33676 26.7 4.3467 26.7168 4.35663C26.7596 4.38148 26.8018 4.40633 26.8426 4.43117C26.9136 4.4744 26.9842 4.51764 27.0543 4.56236C27.0935 4.58671 27.1323 4.61205 27.172 4.63739L27.2133 4.66472C27.2486 4.68758 27.2838 4.71143 27.3186 4.73479C27.3534 4.75815 27.3986 4.78846 27.4389 4.81678L27.4513 4.82473C27.4935 4.85405 27.5358 4.88337 27.5775 4.91318C27.5939 4.92561 27.6118 4.93803 27.6272 4.94996C27.6739 4.98375 27.7206 5.01704 27.7668 5.04934C27.8051 5.07766 27.8434 5.10599 27.8806 5.13531C27.909 5.15618 27.9368 5.17754 27.9646 5.19941C27.9711 5.20388 27.9765 5.20786 27.9825 5.21283C28.0267 5.24711 28.071 5.2819 28.1152 5.31768C28.1594 5.35345 28.1942 5.38079 28.2334 5.41308C28.2831 5.45483 28.3358 5.49706 28.3855 5.5403C28.4267 5.57508 28.468 5.61036 28.5087 5.64614L28.5495 5.68142C28.5788 5.70726 28.6086 5.73111 28.6379 5.75993L28.6961 5.81211C28.7378 5.84938 28.7786 5.88814 28.8198 5.9264C28.8248 5.93087 28.8293 5.93584 28.8347 5.94032C28.871 5.97411 28.9078 6.00889 28.9435 6.04417L28.9838 6.08244L29.0837 6.18728C29.1448 6.24841 29.2059 6.31002 29.266 6.37214L29.4012 6.51525C29.4469 6.56494 29.4921 6.61463 29.5374 6.66433C29.5672 6.69563 29.596 6.72843 29.6248 6.76371C29.6452 6.78607 29.6661 6.80943 29.6864 6.83328C29.7257 6.8785 29.7649 6.92422 29.8037 6.97043C29.8425 7.01664 29.8907 7.07379 29.9329 7.12696C29.9702 7.17168 30.0065 7.2174 30.0427 7.26361C30.0924 7.32622 30.1421 7.39033 30.1918 7.45493C30.2599 7.54387 30.326 7.63431 30.3906 7.72575C30.4825 7.85395 30.5724 7.98365 30.6599 8.11782C30.6599 8.11782 30.6599 8.11781 30.6599 8.1203C30.6669 8.13073 30.6733 8.14117 30.6803 8.15111L30.6977 8.17794C30.7036 8.18788 30.7096 8.19683 30.7156 8.20577C30.729 8.22714 30.7424 8.24751 30.7553 8.26838C30.8249 8.3782 30.8925 8.48852 30.9595 8.59933C30.9904 8.64902 31.0212 8.70269 31.0505 8.75437C31.1191 8.87065 31.1856 8.98792 31.2492 9.10519C31.2492 9.10867 31.2532 9.11215 31.2552 9.11662C31.289 9.17725 31.3218 9.23737 31.3546 9.29849C31.3874 9.35962 31.4172 9.41676 31.448 9.4754C31.5062 9.58621 31.5623 9.69752 31.6175 9.80933C31.6443 9.8625 31.6672 9.91616 31.6955 9.96934C31.7238 10.0225 31.7511 10.0871 31.779 10.1457C31.8068 10.2044 31.8336 10.2635 31.8605 10.3226C31.8873 10.3818 31.9131 10.4409 31.9395 10.501L32.0145 10.675C32.0162 10.6775 32.0174 10.6804 32.018 10.6834C32.0428 10.742 32.0677 10.8012 32.0915 10.8598C32.3389 11.4626 32.5508 12.0793 32.7261 12.7069C32.7435 12.77 32.7604 12.8331 32.7758 12.8967C32.7912 12.9603 32.8091 13.0229 32.8255 13.086C32.8563 13.2092 32.8861 13.3328 32.9149 13.4567C32.9152 13.4605 32.9152 13.4643 32.9149 13.4681C32.9293 13.5317 32.9437 13.5959 32.9577 13.66C33.0153 13.925 33.0662 14.1923 33.1102 14.462C33.3837 16.1274 33.4025 17.8247 33.1659 19.4958C33.1659 19.5017 33.1659 19.5072 33.1634 19.5127C33.1559 19.5683 33.1475 19.6235 33.1395 19.6786L33.1301 19.7378C33.1226 19.7875 33.1147 19.8337 33.1067 19.8814C33.1038 19.942 33.0923 20.0076 33.0809 20.0722Z" fill="url(#paint0_linear_1270_370)"/>
<path d="M32.9463 20.75C32.9045 20.9375 32.86 21.1242 32.8126 21.31C32.8067 21.3359 32.7997 21.3597 32.7927 21.3875C32.7421 21.5813 32.6882 21.7733 32.6312 21.9635C32.6124 22.0261 32.593 22.0897 32.5736 22.1523C32.5592 22.1985 32.5443 22.2452 32.5294 22.2909L32.511 22.3481C32.4936 22.4012 32.4762 22.4544 32.4578 22.5071C32.4578 22.5121 32.4543 22.5175 32.4528 22.523C31.9298 24.0677 31.1831 25.5275 30.2366 26.8556C30.235 26.8569 30.2338 26.8587 30.2331 26.8606L30.1486 26.9774C30.0885 27.0599 30.0284 27.1414 29.9668 27.2224C29.9389 27.2591 29.9116 27.2954 29.8833 27.3317C29.8654 27.355 29.8475 27.3784 29.8291 27.4012C29.8107 27.4241 29.7854 27.4584 29.7625 27.4867C29.7397 27.515 29.7233 27.5364 29.7029 27.5618L29.6403 27.6408C29.599 27.6905 29.5573 27.7401 29.5156 27.7928C29.4738 27.8425 29.4316 27.8922 29.3893 27.9419C29.3471 27.9916 29.3044 28.0413 29.2616 28.091C29.2189 28.1407 29.1757 28.1904 29.1319 28.24L29.0007 28.3861C28.562 28.8677 28.0952 29.323 27.6029 29.7497C27.5532 29.7914 27.5065 29.8332 27.4578 29.8744C27.4558 29.8768 27.4535 29.8788 27.4509 29.8804L27.3048 30.0021L27.1557 30.1254L27.0031 30.2471C26.9534 30.2869 26.9037 30.3271 26.8496 30.3669C26.7954 30.4066 26.7557 30.4389 26.708 30.4747C26.6811 30.4951 26.6538 30.5159 26.626 30.5358L26.5668 30.5795L26.5385 30.6009L26.4063 30.6963C26.3984 30.7028 26.3899 30.7082 26.381 30.7147L26.3626 30.7276C26.3164 30.7609 26.2692 30.7942 26.222 30.827L26.0729 30.9304C26.0163 30.9691 25.9591 31.0079 25.9015 31.0457C25.8483 31.0814 25.7946 31.1167 25.74 31.1515C25.8685 31.066 25.995 30.9789 26.1196 30.8901C26.211 30.8245 26.301 30.7584 26.3899 30.6913C26.4545 30.6417 26.5186 30.592 26.5817 30.5423C26.6275 30.5055 26.6737 30.4697 26.7184 30.432C26.7711 30.3897 26.8232 30.3465 26.8744 30.3028C26.9256 30.259 26.9669 30.2252 27.0116 30.1855L27.0816 30.1244C27.1149 30.0955 27.1477 30.0657 27.181 30.0364C27.2307 29.9917 27.2804 29.9465 27.3301 29.9003C27.3798 29.854 27.4295 29.8088 27.4762 29.7626C27.5229 29.7164 27.5656 29.6756 27.6099 29.6314L27.6596 29.5817C27.6914 29.5499 27.7227 29.5171 27.754 29.4853C27.7669 29.4719 27.7798 29.459 27.7922 29.4456C27.827 29.4093 27.8613 29.373 27.8956 29.3362C27.9001 29.3323 27.9035 29.3278 27.908 29.3233C27.9493 29.2801 27.9895 29.2354 28.0298 29.1916L28.0541 29.1643C28.0884 29.1266 28.1222 29.0888 28.1535 29.05C28.1644 29.0381 28.1754 29.0262 28.1853 29.0142C28.2216 28.9725 28.2579 28.9303 28.2936 28.888C28.3369 28.8383 28.3791 28.7886 28.4203 28.736C28.4536 28.6957 28.4859 28.656 28.5197 28.6147C28.5535 28.5735 28.5888 28.5283 28.6226 28.484C28.6274 28.4785 28.6318 28.4727 28.636 28.4666C28.6584 28.4388 28.6797 28.411 28.7006 28.3827L28.7866 28.2689C28.8197 28.2222 28.8528 28.1754 28.886 28.1287L28.9227 28.079L29.0117 27.9523L29.0181 27.9424C29.0489 27.8977 29.0803 27.8524 29.1106 27.8062C29.1235 27.7874 29.1359 27.769 29.1473 27.7496L29.209 27.6572C29.2259 27.6308 29.2432 27.605 29.2586 27.5781C29.2825 27.5419 29.3083 27.5046 29.3287 27.4668C29.3342 27.4584 29.3401 27.4494 29.3451 27.441C29.369 27.4032 29.3918 27.3655 29.4142 27.3282L29.4639 27.2412L29.5195 27.1458C29.5464 27.0996 29.5727 27.0529 29.5985 27.0062C29.6169 26.9739 29.6358 26.9411 29.6537 26.9068L29.7138 26.7965C29.7208 26.7831 29.7282 26.7702 29.7347 26.7572C29.7541 26.7205 29.774 26.6837 29.7923 26.6469C29.8077 26.6176 29.8217 26.5888 29.8371 26.56C29.8525 26.5311 29.8659 26.5033 29.8798 26.475C29.8937 26.4467 29.9051 26.4253 29.9171 26.3985C29.9359 26.3617 29.9543 26.3244 29.9712 26.2862C29.9802 26.2688 29.9886 26.2509 29.9971 26.2325C30.0164 26.1917 30.0358 26.151 30.0542 26.1093C30.0632 26.0894 30.0721 26.0705 30.0806 26.0501C30.0955 26.0188 30.1094 25.988 30.1228 25.9562C30.1362 25.9244 30.1536 25.8861 30.1685 25.8514C30.176 25.834 30.1834 25.8156 30.1914 25.7977C30.2122 25.748 30.2331 25.6983 30.2535 25.6486C30.2739 25.5989 30.2937 25.5492 30.3126 25.4995C30.323 25.4747 30.333 25.4498 30.3429 25.423C30.3529 25.3962 30.3683 25.3564 30.3807 25.3236C30.4021 25.2675 30.4224 25.2108 30.4428 25.1537C30.4567 25.1164 30.4701 25.0781 30.4831 25.0399C30.496 25.0016 30.5144 24.9489 30.5298 24.9022C30.5452 24.8555 30.5626 24.8029 30.5795 24.7532C30.5797 24.7526 30.5799 24.752 30.5799 24.7514C30.5799 24.7508 30.5797 24.7502 30.5795 24.7497C30.5988 24.6901 30.6177 24.6299 30.6356 24.5698C30.6535 24.5097 30.6724 24.4481 30.6893 24.3869C30.7062 24.3258 30.7196 24.2796 30.734 24.2254C30.741 24.2006 30.7469 24.1757 30.7534 24.1524C30.7633 24.1151 30.7728 24.0774 30.7817 24.0406C30.7966 23.9829 30.811 23.9248 30.8249 23.8667C30.8334 23.8334 30.8408 23.8001 30.8473 23.7673C30.8538 23.7345 30.8657 23.6893 30.8736 23.6495V23.6416C30.8861 23.5844 30.8985 23.5278 30.9099 23.4706C30.9213 23.4135 30.9303 23.3673 30.9397 23.3156C30.9492 23.2639 30.9611 23.1993 30.9715 23.1412C30.9715 23.1337 30.9745 23.1258 30.975 23.1183C30.9815 23.081 30.9879 23.0433 30.9939 23.006C30.9999 22.9687 31.0053 22.9364 31.0103 22.9021C31.0103 22.8947 31.0103 22.8872 31.0138 22.8793C31.0227 22.8226 31.0307 22.7655 31.0381 22.7078C31.0808 22.3988 31.111 22.0884 31.1286 21.7766C31.1315 21.7324 31.1335 21.6887 31.1355 21.6459C31.1474 21.4064 31.1517 21.1669 31.1484 20.9274C31.1484 20.821 31.1456 20.7149 31.14 20.6089C31.0578 18.5204 30.4345 16.489 29.3311 14.7139C28.2278 12.9388 26.6821 11.4808 24.8457 10.4827C23.0093 9.48464 20.9451 8.98078 18.8554 9.02049C16.7656 9.0602 14.7221 9.64212 12.9249 10.7092L12.8444 10.7589L12.755 10.8136L12.666 10.8687C12.5965 10.9135 12.5274 10.9592 12.4598 11.0054C12.435 11.0218 12.4101 11.0387 12.3868 11.0551C12.3634 11.0715 12.3371 11.0889 12.3152 11.1048C12.2933 11.1207 12.2655 11.1386 12.2441 11.1545C12.2228 11.1704 12.1944 11.1888 12.1731 11.2071L12.1035 11.2603C11.7059 11.5663 11.3406 11.9122 11.0133 12.2924C10.974 12.3371 10.9362 12.3824 10.899 12.4281C10.8796 12.4509 10.8607 12.4743 10.8423 12.4976C10.8051 12.5439 10.7683 12.5906 10.733 12.6378C10.6977 12.685 10.6659 12.7257 10.6336 12.77C10.5874 12.8331 10.5427 12.8967 10.4985 12.9613C10.4855 12.9812 10.4716 13.0015 10.4582 13.0214C10.4448 13.0413 10.4254 13.0711 10.4085 13.0954C10.3916 13.1198 10.3762 13.1451 10.3588 13.1705C10.0586 13.6456 9.81385 14.1537 9.62935 14.6846C9.61941 14.7114 9.60997 14.7383 9.60102 14.7661V14.7686C9.58164 14.8237 9.56425 14.8794 9.54686 14.9355C9.52052 15.0175 9.49717 15.1015 9.47282 15.184C9.46487 15.2128 9.45692 15.2421 9.44946 15.2719C9.96325 13.2444 10.9951 11.3851 12.444 9.87644C13.8928 8.3678 15.7088 7.26157 17.714 6.66622C19.7191 6.07087 21.8446 6.00684 23.882 6.4804C25.9193 6.95396 27.7987 7.94886 29.3357 9.36755C29.4132 9.4401 29.4902 9.51265 29.5662 9.58769C29.7378 9.75333 29.9035 9.92559 30.0632 10.1045C30.093 10.1376 30.1223 10.1699 30.1511 10.2014C30.3595 10.4349 30.5583 10.6759 30.7474 10.9244C30.7827 10.9701 30.8175 11.0163 30.8513 11.063C30.8561 11.0689 30.8605 11.0751 30.8647 11.0814C30.8856 11.1093 30.9064 11.1376 30.9268 11.1664C30.9472 11.1952 30.9715 11.228 30.9929 11.2593C30.9979 11.2653 31.0018 11.2717 31.0068 11.2782C31.0406 11.3279 31.0739 11.3746 31.1062 11.4233C31.1385 11.472 31.1658 11.5108 31.1946 11.5545C31.2235 11.5982 31.2587 11.6539 31.2901 11.7006L31.2945 11.708C31.3169 11.7418 31.3383 11.7756 31.3591 11.8074C31.38 11.8392 31.3959 11.8646 31.4133 11.8939C31.4446 11.9436 31.4759 11.9963 31.5062 12.0474C31.5261 12.0802 31.5455 12.1135 31.5648 12.1468C31.5778 12.1682 31.5902 12.1906 31.6031 12.2124C31.6309 12.2621 31.6578 12.3093 31.6851 12.358C31.7124 12.4067 31.7467 12.4693 31.7765 12.5255C31.8064 12.5816 31.8362 12.6363 31.8645 12.6924C31.8649 12.6934 31.8649 12.6945 31.8645 12.6954C31.8883 12.7411 31.9142 12.7878 31.9351 12.8346C31.9559 12.8813 31.9788 12.9215 31.9997 12.9652C32.0205 13.009 32.0349 13.0378 32.0493 13.0736C32.0757 13.1287 32.099 13.1829 32.1259 13.2381C32.1408 13.2709 32.1557 13.3032 32.1701 13.3374C32.1815 13.3623 32.1925 13.3871 32.2029 13.4125C32.2248 13.4622 32.2456 13.5119 32.266 13.5616C32.2864 13.6112 32.3077 13.6609 32.3281 13.7106C32.3356 13.7285 32.343 13.7469 32.35 13.7648C32.3639 13.7996 32.3783 13.8354 32.3917 13.8706C32.4051 13.9059 32.4166 13.9347 32.4285 13.967C32.4364 13.9869 32.4439 14.0073 32.4514 14.0272C32.4673 14.0699 32.4832 14.1126 32.4981 14.1554C32.5055 14.1743 32.512 14.1926 32.5179 14.211C32.5323 14.2503 32.5458 14.2895 32.5592 14.3288C32.5686 14.3556 32.5781 14.3825 32.5865 14.4093C32.595 14.4361 32.6069 14.4694 32.6163 14.4997C32.6258 14.53 32.6367 14.5614 32.6466 14.5927C32.6591 14.6319 32.6715 14.6717 32.6834 14.7114C32.6879 14.7253 32.6924 14.7392 32.6963 14.7542C32.7088 14.7944 32.7207 14.8347 32.7321 14.8744C32.7435 14.9142 32.753 14.947 32.7629 14.9832C32.7773 15.0329 32.7917 15.0861 32.8057 15.1378C32.8151 15.1731 32.824 15.2088 32.8335 15.2451C32.8429 15.2814 32.8504 15.3102 32.8583 15.3445C32.8688 15.3867 32.8792 15.4295 32.8891 15.4727C32.8891 15.4826 32.8941 15.4926 32.8961 15.503C32.9065 15.5457 32.9165 15.5885 32.9249 15.6307C32.9324 15.6615 32.9393 15.6918 32.9453 15.7227C32.9513 15.7535 32.9607 15.7952 32.9677 15.8315C32.9726 15.8533 32.9771 15.8752 32.9811 15.8976C32.992 15.9512 33.0024 16.0054 33.0124 16.0591C33.0124 16.063 33.0124 16.067 33.0124 16.071C33.022 16.1217 33.0309 16.1724 33.0392 16.2231L33.0496 16.2852C33.0591 16.3418 33.068 16.399 33.0765 16.4561C33.0834 16.5033 33.0899 16.55 33.0964 16.5972C33.1013 16.632 33.1063 16.6668 33.1103 16.7021C33.1103 16.709 33.1103 16.7165 33.1132 16.7239C33.1207 16.7791 33.1267 16.8343 33.1326 16.8894C33.1386 16.9446 33.1441 16.9918 33.149 17.044C33.156 17.1091 33.1614 17.1751 33.1669 17.2427C33.1719 17.2979 33.1759 17.353 33.1793 17.4087C33.1793 17.4243 33.1803 17.4408 33.1823 17.4584C33.1863 17.5081 33.1888 17.5578 33.1918 17.6109C33.1918 17.6229 33.1918 17.6348 33.1918 17.6472C33.1947 17.7073 33.1977 17.767 33.1992 17.8266C33.1992 17.8331 33.1992 17.8385 33.1992 17.844C33.1992 17.8937 33.2022 17.9434 33.2032 17.9931C33.2032 18.012 33.2032 18.0303 33.2032 18.0487V18.1834C33.2032 18.2058 33.2032 18.2286 33.2032 18.252C33.2032 18.3141 33.2032 18.3762 33.2032 18.4388C33.2032 18.5014 33.2002 18.5725 33.1977 18.6376C33.1952 18.7027 33.1928 18.7722 33.1893 18.8393C33.1868 18.8831 33.1848 18.9268 33.1813 18.9705C33.1813 19.0013 33.1778 19.0326 33.1754 19.0634C33.1714 19.1236 33.1669 19.1832 33.1614 19.2433C33.156 19.3035 33.15 19.378 33.1426 19.4456C33.1371 19.5032 33.1301 19.5614 33.1237 19.62C33.1142 19.7 33.1043 19.78 33.0934 19.8605C33.0781 19.9708 33.0616 20.0815 33.0437 20.1924C33.0183 20.3485 32.9895 20.504 32.9572 20.66C32.9572 20.67 32.9532 20.6799 32.9508 20.6899C32.9483 20.6998 32.9443 20.7222 32.9403 20.7395C32.9425 20.7429 32.9445 20.7464 32.9463 20.75Z" fill="url(#paint1_linear_1270_370)"/>
<path d="M23.8661 19.1566C23.874 19.1278 23.882 19.0984 23.8894 19.0686C23.3752 21.096 22.343 22.955 20.894 24.4633C19.445 25.9717 17.6289 27.0776 15.6238 27.6727C13.6186 28.2678 11.4933 28.3316 9.45603 27.8579C7.41879 27.3842 5.53961 26.3892 4.00271 24.9705C3.90929 24.8831 3.81637 24.7946 3.72493 24.7052L3.72096 24.7012C3.64344 24.6247 3.56708 24.547 3.49188 24.4682C3.3925 24.3638 3.29444 24.2578 3.1977 24.1501C3.15994 24.1079 3.12217 24.0656 3.0849 24.0224C2.91363 23.8237 2.74882 23.6206 2.59047 23.4132C2.55171 23.3635 2.51394 23.3138 2.47618 23.2606C2.43841 23.2075 2.40263 23.1613 2.36685 23.1116C2.36565 23.1097 2.36433 23.1078 2.36288 23.1061C2.33654 23.0688 2.30971 23.0316 2.28387 22.9938L2.24561 22.9381C2.21281 22.8884 2.18001 22.8417 2.14622 22.7935C2.11243 22.7453 2.07616 22.6872 2.04187 22.6335C2.01404 22.5908 1.98721 22.5481 1.95988 22.5043C1.91565 22.4338 1.87143 22.3617 1.82869 22.2897C1.80136 22.2444 1.77453 22.1987 1.74769 22.153C1.74645 22.1496 1.7446 22.1464 1.74223 22.1436C1.71092 22.0894 1.68011 22.0342 1.6498 21.9796C1.61949 21.9249 1.58818 21.8683 1.55837 21.8121C1.52855 21.756 1.49824 21.7008 1.47041 21.6452C1.47007 21.6442 1.47007 21.6431 1.47041 21.6422C1.44209 21.5885 1.41525 21.5348 1.38892 21.4807L1.38196 21.4683C1.35811 21.4186 1.33227 21.3719 1.3119 21.3237C1.30593 21.3127 1.30096 21.3013 1.2955 21.2899C1.26966 21.2362 1.24581 21.1825 1.21997 21.1289C1.19413 21.0752 1.17475 21.0295 1.15288 20.9798C1.14642 20.9644 1.13946 20.949 1.13251 20.9336C1.11015 20.8839 1.08828 20.8312 1.06691 20.7795C1.04555 20.7278 1.02517 20.6801 1.0048 20.6304C0.997346 20.6131 0.989892 20.5947 0.982935 20.5763C0.967034 20.5375 0.952126 20.4983 0.936722 20.459C0.929268 20.4396 0.921317 20.4198 0.913864 20.3994C0.898459 20.3601 0.884048 20.3209 0.869141 20.2811L0.845288 20.2155C0.830381 20.1758 0.816467 20.1365 0.80305 20.0968C0.796094 20.0784 0.789634 20.0595 0.783671 20.0406C0.766775 19.9909 0.750377 19.9452 0.733979 19.898L0.726525 19.8731C0.70963 19.8235 0.693231 19.7738 0.676833 19.7241C0.67087 19.7072 0.665901 19.6903 0.660932 19.6744C0.649005 19.6366 0.637577 19.5983 0.626147 19.5606C0.619191 19.5382 0.612233 19.5154 0.605774 19.4925C0.590866 19.4428 0.575958 19.3891 0.561548 19.3375C0.547137 19.2858 0.532726 19.2326 0.518813 19.1794C0.51434 19.1616 0.509371 19.1432 0.504402 19.1248C0.492476 19.0751 0.480053 19.0299 0.468624 18.9827C0.449244 18.9027 0.429864 18.8217 0.411975 18.7412C0.40154 18.6954 0.391601 18.6502 0.38216 18.6045C0.378682 18.5886 0.375203 18.5722 0.372222 18.5548C0.363277 18.5137 0.354829 18.4725 0.346879 18.4311C0.337437 18.3814 0.327996 18.3362 0.320045 18.288C0.320045 18.283 0.320045 18.2785 0.317064 18.2736C0.307457 18.2229 0.298512 18.1722 0.29023 18.1215L0.279795 18.0594C0.270353 18.0027 0.261409 17.9456 0.252961 17.8884C0.246004 17.8388 0.239544 17.7945 0.233084 17.7473C0.228115 17.7125 0.223643 17.6778 0.219171 17.6425L0.216189 17.6206C0.209232 17.565 0.202275 17.5088 0.196312 17.4527C0.190349 17.3965 0.18538 17.3533 0.180411 17.3036C0.173454 17.2385 0.167491 17.1724 0.162522 17.1048C0.157553 17.0511 0.153577 16.997 0.150099 16.9433C0.150099 16.9254 0.150099 16.9075 0.14662 16.8896C0.143639 16.8504 0.141154 16.8106 0.139664 16.7709C0.139664 16.745 0.136682 16.7212 0.135688 16.6934C0.132707 16.6377 0.130719 16.5816 0.128731 16.5249C0.128731 16.5179 0.128731 16.5115 0.128731 16.505C0.128731 16.4553 0.12575 16.4056 0.124756 16.356C0.124756 16.3371 0.124756 16.3187 0.124756 16.3003V16.1656C0.124756 16.0792 0.124756 15.9927 0.124756 15.9062C0.124756 15.8406 0.128234 15.7751 0.130222 15.71C0.13221 15.6449 0.135191 15.5753 0.13867 15.5082C0.13867 15.4645 0.143142 15.4207 0.14662 15.377C0.14662 15.3462 0.150099 15.3149 0.152087 15.2841C0.156559 15.224 0.161031 15.1643 0.166497 15.1042C0.171963 15.0441 0.177926 14.969 0.18538 14.902C0.190846 14.8443 0.197306 14.7857 0.204263 14.7275C0.213207 14.6475 0.223643 14.5675 0.234575 14.487C0.249482 14.3762 0.266875 14.2654 0.284267 14.1551C0.309775 13.9991 0.338597 13.8432 0.370731 13.6875C0.373713 13.6721 0.376694 13.6572 0.380172 13.6418C0.383651 13.6264 0.387129 13.6115 0.390111 13.5966C0.431521 13.4094 0.476078 13.2227 0.523782 13.0365C0.529745 13.0107 0.536702 12.9844 0.543659 12.959C0.594344 12.7652 0.648177 12.5732 0.705157 12.3831C0.72404 12.3205 0.74342 12.2574 0.7628 12.1943C0.776714 12.151 0.79013 12.1073 0.804541 12.0641C0.811498 12.0407 0.818952 12.0178 0.826406 11.9945C0.843301 11.9448 0.860693 11.8921 0.876098 11.8404C0.878461 11.835 0.880453 11.8293 0.88206 11.8236C1.3209 10.5269 1.91772 9.2892 2.65904 8.1384C2.69432 8.08324 2.7306 8.02858 2.76638 7.97392C2.80315 7.91926 2.83942 7.8646 2.87669 7.80994C2.91396 7.75528 2.95024 7.70161 2.988 7.64794C3.00043 7.63005 3.01285 7.61167 3.02577 7.59378C3.05012 7.55949 3.07546 7.5247 3.09832 7.49091C3.10023 7.48955 3.10181 7.48777 3.10293 7.4857C3.10405 7.48363 3.10468 7.48134 3.10478 7.47899C3.19191 7.35774 3.28052 7.23732 3.37063 7.11773C3.39945 7.07897 3.42827 7.0412 3.45759 7.00294L3.50728 6.93884C3.52368 6.91648 3.54107 6.89461 3.55698 6.87324L3.57288 6.85287C3.57425 6.85079 3.57574 6.8488 3.57735 6.84691L3.63201 6.77833C3.97958 6.34303 4.34876 5.92542 4.73815 5.52709C4.78387 5.48088 4.82959 5.43417 4.8758 5.38795C5.05966 5.20409 5.24799 5.02454 5.4408 4.84929C5.58424 4.7191 5.72984 4.59123 5.87759 4.46567C5.87759 4.46567 5.87759 4.46567 5.88057 4.46567C5.88355 4.46567 5.88057 4.46319 5.88454 4.46219C6.03196 4.33763 6.18104 4.21539 6.33177 4.09547L6.48532 3.97571L6.62694 3.86788L6.64036 3.85794C6.67862 3.82862 6.71738 3.8003 6.75614 3.77147L6.76807 3.76303L6.79639 3.74166L6.92857 3.64625L7.09206 3.52997C7.14821 3.49022 7.20536 3.45146 7.2625 3.4122L7.27294 3.40525C7.38375 3.32922 7.49605 3.25617 7.60935 3.18213C7.47568 3.27008 7.34549 3.35953 7.21728 3.45146C7.12635 3.51705 7.03541 3.58314 6.94696 3.65023C6.8807 3.69892 6.81676 3.74862 6.75515 3.7993C6.70893 3.83558 6.66322 3.87185 6.61849 3.90962C6.56582 3.95136 6.51364 3.99459 6.46246 4.03882C6.41128 4.08304 6.37003 4.11634 6.32531 4.15609L6.25525 4.21721C6.22195 4.24603 6.18916 4.27535 6.15586 4.30517C6.10617 4.34989 6.05648 4.39511 6.00679 4.44132C5.95709 4.48754 5.91038 4.53077 5.86367 4.57648C5.80106 4.63661 5.73994 4.69773 5.67882 4.75836C5.64702 4.79016 5.61571 4.82296 5.5844 4.85476C5.57149 4.86818 5.55857 4.8811 5.54614 4.89451C5.51136 4.93079 5.47657 4.96756 5.44278 5.00383L5.42837 5.01824C5.39011 5.05999 5.35185 5.10073 5.31408 5.14248L5.26439 5.20061C5.23706 5.22993 5.21122 5.25925 5.18538 5.28907C5.17345 5.30199 5.16153 5.3159 5.1501 5.32981C5.11432 5.37006 5.07904 5.41081 5.04425 5.45255C5.00152 5.50224 4.95928 5.55194 4.91704 5.60461C4.88474 5.64387 4.85294 5.68362 4.82163 5.72288C4.79033 5.76213 4.75107 5.81133 4.71728 5.85605C4.71231 5.86201 4.70834 5.86698 4.70386 5.87344C4.6815 5.90127 4.66014 5.9291 4.63927 5.95742C4.60995 5.99519 4.58162 6.03295 4.5533 6.07122C4.52017 6.11793 4.48704 6.16464 4.45391 6.21135L4.41714 6.26104C4.38683 6.30328 4.35702 6.34552 4.32819 6.38775C4.32819 6.39173 4.32273 6.3957 4.32024 6.40018C4.29242 6.43993 4.26509 6.48018 4.23875 6.51994C4.21241 6.55969 4.18906 6.59 4.16868 6.62578C4.15924 6.63969 4.1503 6.65361 4.14086 6.66702L4.06781 6.7833C4.02309 6.85337 3.97985 6.92393 3.93712 6.99499C3.91178 7.03623 3.88743 7.07798 3.86208 7.12071C3.85215 7.13661 3.8427 7.15351 3.83376 7.1704C3.80544 7.21761 3.7786 7.26432 3.75177 7.31252C3.72493 7.36072 3.69959 7.40594 3.67375 7.45265C3.66183 7.47402 3.65089 7.49489 3.63946 7.51576C3.62058 7.55005 3.6017 7.58483 3.58431 7.62061C3.57536 7.63701 3.56691 7.65241 3.55896 7.6703C3.53461 7.71652 3.50927 7.76372 3.48691 7.81093L3.47498 7.83429C3.45213 7.87851 3.42976 7.92323 3.40889 7.96945C3.39962 7.98734 3.39067 8.00523 3.38206 8.02312C3.36417 8.06038 3.34579 8.09815 3.3279 8.13691L3.29907 8.20051C3.28119 8.23778 3.26429 8.27704 3.24938 8.3153C3.23994 8.33468 3.23199 8.35456 3.22354 8.37394C3.20565 8.4122 3.18926 8.44997 3.17385 8.48972C3.1659 8.50711 3.15845 8.525 3.15099 8.54339C3.12963 8.59308 3.10875 8.64277 3.08888 8.69247C3.069 8.74216 3.04664 8.79533 3.02627 8.8485C3.0203 8.8639 3.01434 8.8798 3.00788 8.89521C2.9885 8.9449 2.96912 8.99708 2.95024 9.04826C2.93135 9.09944 2.90949 9.15907 2.89011 9.21522C2.88564 9.22765 2.88067 9.23908 2.87719 9.2505C2.8588 9.3002 2.84191 9.34989 2.82452 9.40256C2.82356 9.4073 2.82223 9.41195 2.82054 9.41648C2.80116 9.47312 2.78178 9.53027 2.76389 9.58841C2.76389 9.58841 2.76389 9.58841 2.76389 9.59189C2.74402 9.65102 2.72563 9.71115 2.70774 9.77177C2.68985 9.8324 2.67097 9.89352 2.65407 9.95464L2.60438 10.1365C2.60414 10.1401 2.6033 10.1436 2.6019 10.1469C2.58848 10.1966 2.57506 10.2493 2.56264 10.301C2.54177 10.382 2.52189 10.464 2.504 10.5455C2.49108 10.5952 2.48015 10.6449 2.46972 10.6946C2.4563 10.7567 2.44288 10.8188 2.43096 10.8814C2.41903 10.944 2.4076 10.9952 2.39766 11.0518C2.39369 11.0747 2.38971 11.0961 2.38524 11.1184C2.37679 11.1636 2.36934 11.2094 2.36189 11.2541C2.36189 11.2541 2.36189 11.2586 2.36189 11.2605C2.35095 11.3217 2.34101 11.3833 2.33207 11.4444C2.32313 11.5055 2.31319 11.5706 2.30524 11.6332C2.26946 11.8916 2.24262 12.1525 2.22424 12.4139C2.22026 12.4705 2.21629 12.5267 2.2138 12.5838C2.20486 12.7274 2.19989 12.8721 2.19691 13.0167C2.19393 13.1255 2.19343 13.2338 2.19393 13.3431V13.3426C2.19393 13.4702 2.19691 13.5982 2.20287 13.7268C2.28479 15.8148 2.9077 17.8458 4.01059 19.6208C5.11347 21.3957 6.65851 22.8538 8.49434 23.852C10.3302 24.8503 12.3938 25.3546 14.4831 25.3154C16.5725 25.2763 18.6158 24.6952 20.413 23.6289L20.4945 23.5792L20.5839 23.5245L20.6729 23.4693C20.7424 23.4246 20.8115 23.3789 20.8791 23.3327C20.9039 23.3163 20.9288 23.2994 20.9521 23.283C20.9755 23.2666 21.0018 23.2492 21.0237 23.2333C21.0455 23.2174 21.0734 23.1995 21.0947 23.1836C21.1161 23.1677 21.1444 23.1493 21.1653 23.1309C21.1862 23.1126 21.2125 23.0957 21.2354 23.0778C21.6331 22.7711 21.9984 22.4246 22.3256 22.0437C22.3649 21.999 22.4026 21.9537 22.4399 21.908C22.4593 21.8852 22.4782 21.8618 22.4965 21.8385C22.5338 21.7922 22.5706 21.7455 22.6059 21.6983C22.6412 21.6511 22.673 21.6104 22.7053 21.5661C22.7516 21.5032 22.7965 21.4394 22.8399 21.3748L22.8807 21.3147C22.8971 21.2904 22.9135 21.265 22.9304 21.2407C22.9473 21.2163 22.9627 21.191 22.98 21.1656C23.2808 20.692 23.5264 20.1855 23.712 19.656C23.722 19.6292 23.7314 19.6023 23.7403 19.5745C23.7592 19.5193 23.7771 19.4637 23.7945 19.4075C23.8184 19.3231 23.8427 19.2391 23.8661 19.1566Z" fill="url(#paint2_linear_1270_370)"/>
<path d="M27.5249 19.7504C27.8098 21.5534 27.6828 23.3975 27.1535 25.1445C26.6243 26.8915 25.7065 28.496 24.4689 29.8379C24.397 29.916 24.3238 29.9929 24.2492 30.0684C24.0836 30.2404 23.9112 30.406 23.732 30.5653C23.7006 30.5952 23.6679 30.624 23.6326 30.6533C23.4007 30.861 23.1598 31.0598 22.91 31.2496L22.7714 31.3535L22.753 31.3669C22.7247 31.3877 22.6964 31.4086 22.6676 31.429C22.6387 31.4494 22.6059 31.4732 22.5746 31.4951C22.5692 31.5 22.5622 31.504 22.5562 31.5085L22.4106 31.6079C22.3674 31.6377 22.3237 31.6675 22.28 31.6963C22.2362 31.7252 22.1806 31.7604 22.1334 31.7917L22.1264 31.7962C22.0926 31.8181 22.0588 31.8399 22.0245 31.8608C21.9903 31.8817 21.9674 31.8971 21.9381 31.915C21.8884 31.9463 21.8387 31.9776 21.785 32.0074C21.7522 32.0273 21.7189 32.0472 21.6856 32.066L21.6205 32.1043L21.4749 32.1868C21.4193 32.2181 21.3636 32.2479 21.3075 32.2782C21.2513 32.3085 21.1962 32.3374 21.1405 32.3662H21.1375C21.0913 32.39 21.0451 32.4134 20.9979 32.4367C20.9507 32.4601 20.9109 32.48 20.8672 32.5008C20.8314 32.5192 20.7952 32.5366 20.7589 32.5505C20.7042 32.5767 20.6496 32.602 20.5949 32.6266C20.5621 32.642 20.5293 32.6569 20.4955 32.6708L20.42 32.7041C20.3703 32.7254 20.3206 32.7468 20.2709 32.7672C20.2212 32.7876 20.1715 32.8089 20.1218 32.8288L20.0677 32.8507C20.0324 32.8651 19.9971 32.879 19.9613 32.8924C19.9256 32.9058 19.8972 32.9178 19.8649 32.9292C19.8451 32.9376 19.8252 32.9451 19.8048 32.9525C19.7621 32.9684 19.7198 32.9843 19.6766 32.9993L19.6209 33.0191C19.5817 33.033 19.5429 33.047 19.5032 33.0599C19.4768 33.0693 19.45 33.0788 19.4227 33.0872C19.3953 33.0957 19.363 33.1076 19.3322 33.1175L19.2393 33.1473C19.2001 33.1603 19.1603 33.1727 19.121 33.1846L19.0778 33.1975C19.0376 33.2099 18.9978 33.2219 18.9576 33.2333L18.8492 33.2641L18.6947 33.3063L18.5873 33.3347L18.488 33.3595C18.4457 33.3695 18.4025 33.3804 18.3598 33.3898L18.3294 33.3973C18.2862 33.4072 18.244 33.4172 18.2012 33.4261C18.1709 33.4336 18.1401 33.44 18.1098 33.446C18.0795 33.4519 18.0373 33.4614 18.0005 33.4688C17.9791 33.4738 17.9568 33.4783 17.9344 33.4823C17.8812 33.4927 17.8271 33.5036 17.7729 33.5131H17.761L17.6094 33.5399L17.5473 33.5498C17.4902 33.5593 17.4335 33.5682 17.3764 33.5767C17.3292 33.5836 17.2819 33.5906 17.2352 33.5965C17.2004 33.6015 17.1652 33.607 17.1304 33.6105C17.1232 33.612 17.1159 33.613 17.1085 33.6134C17.0532 33.6211 16.998 33.6275 16.943 33.6328C16.8934 33.6393 16.8402 33.6443 16.7885 33.6492C16.7229 33.6562 16.6573 33.6621 16.5897 33.6676C16.5346 33.6721 16.4794 33.6766 16.4238 33.68L16.3741 33.683C16.3244 33.6865 16.2722 33.6895 16.221 33.692H16.1852C16.1251 33.6949 16.065 33.6974 16.0054 33.6989C15.9996 33.6997 15.9937 33.6997 15.988 33.6989C15.9383 33.6989 15.8886 33.7024 15.8389 33.7029C15.8205 33.7029 15.8021 33.7029 15.7832 33.7029H15.6491H15.5805C15.5179 33.7029 15.4558 33.7029 15.3937 33.7029C15.3315 33.7029 15.26 33.7029 15.1949 33.6974C15.1298 33.692 15.0602 33.6925 14.9931 33.689L14.8619 33.6815L14.769 33.6756C14.7094 33.6716 14.6498 33.6671 14.5896 33.6616C14.5295 33.6562 14.455 33.6497 14.3874 33.6423C14.3292 33.6368 14.2711 33.6303 14.213 33.6234C14.133 33.6144 14.0525 33.6045 13.9725 33.5936C13.8616 33.5777 13.7513 33.5613 13.64 33.5439C13.4845 33.5185 13.329 33.4897 13.1724 33.4579H13.1689L13.1426 33.4524L13.0929 33.4415C13.0885 33.4412 13.0842 33.4403 13.08 33.439C12.8928 33.3979 12.7063 33.3536 12.5205 33.3058C12.4941 33.2994 12.4683 33.2929 12.4429 33.2855C12.2491 33.2348 12.0572 33.1811 11.867 33.1245C11.8039 33.1051 11.7403 33.0862 11.6777 33.0663C11.6315 33.0519 11.5853 33.0375 11.5391 33.0221L11.4819 33.0042C11.4292 32.9863 11.3761 32.9694 11.3234 32.9511L11.307 32.9456C10.0103 32.5069 8.77265 31.9103 7.62184 31.1691C7.28492 30.9514 6.9548 30.7212 6.63148 30.4784C6.53458 30.4053 6.43867 30.3293 6.34326 30.2558C5.88092 29.8912 5.43837 29.5022 5.01748 29.0905C4.59896 28.6807 4.20205 28.2495 3.82836 27.7985L3.70512 27.6494C3.58288 27.4974 3.46312 27.3436 3.34585 27.1883C3.30709 27.1386 3.26833 27.0844 3.23006 27.0322C3.20025 26.993 3.17193 26.9532 3.1431 26.913L3.13615 26.9035C3.09639 26.8479 3.05714 26.7927 3.01788 26.7366C2.9016 26.5709 2.78814 26.4026 2.67749 26.2317C2.76346 26.3604 2.84992 26.4871 2.93937 26.6109C3.00496 26.7028 3.07105 26.7922 3.13813 26.8817C3.18783 26.9463 3.23752 27.0104 3.28721 27.073C3.32349 27.1192 3.35976 27.1649 3.39703 27.2096C3.43976 27.2628 3.483 27.315 3.52623 27.3662C3.56946 27.4174 3.60424 27.4581 3.6435 27.5033C3.66387 27.5272 3.68425 27.55 3.70512 27.5729C3.73394 27.6067 3.76326 27.639 3.79258 27.6723C3.8373 27.722 3.88252 27.7717 3.92873 27.8214C3.97495 27.871 4.02066 27.9207 4.06688 27.9669C4.11309 28.0132 4.15384 28.0564 4.19806 28.1006L4.24775 28.1503L4.34366 28.2442L4.38391 28.2825C4.41969 28.3178 4.45596 28.3521 4.49274 28.3863L4.50566 28.3983C4.54938 28.44 4.59361 28.4803 4.63784 28.52C4.64678 28.5285 4.65573 28.5369 4.66467 28.5444C4.70244 28.5792 4.7407 28.6124 4.77896 28.6438C4.79138 28.6542 4.80281 28.6651 4.81474 28.6751C4.85698 28.7118 4.89872 28.7476 4.94145 28.7834C4.98419 28.8192 5.04084 28.8694 5.09351 28.9106C5.13376 28.9434 5.17352 28.9762 5.21426 29.01C5.25501 29.0438 5.30122 29.0796 5.34495 29.1133C5.35058 29.1182 5.35656 29.1227 5.36284 29.1268C5.39017 29.1491 5.4185 29.17 5.44682 29.1909C5.48409 29.2202 5.52235 29.2485 5.56062 29.2768C5.60683 29.3116 5.65354 29.3449 5.70025 29.3762C5.71714 29.3881 5.73503 29.4006 5.74994 29.413C5.79168 29.4428 5.83392 29.4721 5.87616 29.5014L5.88659 29.5079C5.93132 29.5392 5.97654 29.5705 6.02275 29.6003C6.04114 29.6132 6.06002 29.6257 6.0789 29.6376C6.10971 29.658 6.14052 29.6788 6.17183 29.6987C6.20313 29.7186 6.224 29.7335 6.25034 29.7484C6.28711 29.7718 6.32438 29.7981 6.36165 29.8185L6.38799 29.8349L6.50079 29.9039L6.58725 29.9536C6.61905 29.9725 6.65086 29.9914 6.68316 30.0098C6.72937 30.0366 6.77608 30.063 6.82229 30.0888L6.92168 30.144L7.03199 30.2036L7.07175 30.225C7.10802 30.2443 7.14479 30.2637 7.18206 30.2821C7.21088 30.298 7.23971 30.3119 7.26902 30.3268C7.29834 30.3417 7.32517 30.3556 7.354 30.3696C7.38282 30.3835 7.40369 30.3949 7.43002 30.4073C7.4668 30.4262 7.50407 30.4441 7.54233 30.4615L7.596 30.4868L7.71923 30.5445L7.77837 30.5708C7.80967 30.5852 7.84048 30.5991 7.87278 30.613C7.90508 30.627 7.94235 30.6434 7.97713 30.6583L8.0308 30.6811C8.08049 30.7025 8.13018 30.7234 8.17988 30.7432C8.22957 30.7631 8.27926 30.784 8.32895 30.8029C8.35429 30.8128 8.37864 30.8232 8.40548 30.8327L8.50486 30.8709L8.6753 30.9331C8.71208 30.947 8.75034 30.9599 8.7886 30.9733C8.82686 30.9867 8.87954 31.0046 8.92675 31.0195C8.97395 31.0344 9.02613 31.0523 9.07582 31.0692C9.07694 31.0696 9.07818 31.0696 9.0793 31.0692C9.13893 31.0886 9.19955 31.1075 9.25968 31.1254C9.31981 31.1433 9.38093 31.1616 9.44255 31.179L9.60405 31.2233L9.67709 31.2426L9.7889 31.2715L9.96232 31.3142C9.99562 31.3226 10.0289 31.3301 10.0617 31.3371L10.1795 31.3634H10.1879C10.2446 31.3758 10.3017 31.3877 10.3584 31.3992C10.415 31.4106 10.4617 31.42 10.5139 31.429C10.5661 31.4379 10.6297 31.4504 10.6883 31.4608L10.7107 31.4648L10.8235 31.4832C10.8578 31.4891 10.8926 31.4946 10.9273 31.4995L10.9497 31.503C11.0064 31.512 11.064 31.5199 11.1211 31.5274C11.4302 31.5704 11.7408 31.6008 12.0529 31.6183C12.0966 31.6183 12.1403 31.6233 12.1836 31.6248C12.4226 31.6367 12.6626 31.6412 12.9016 31.6377C13.0079 31.6377 13.1143 31.6342 13.2201 31.6297C15.3079 31.5484 17.3388 30.9262 19.1139 29.8242C20.889 28.7221 22.3475 27.1779 23.3465 25.3429C24.3455 23.5078 24.8509 21.4448 24.813 19.3557C24.7752 17.2667 24.1955 15.2233 23.1307 13.4256L23.081 13.3431L23.0268 13.2537L22.9712 13.1647C22.9264 13.0945 22.8811 13.0256 22.835 12.958C22.8181 12.9332 22.8017 12.9083 22.7853 12.8855C22.7689 12.8626 22.7515 12.8358 22.7356 12.8134C22.7197 12.791 22.7013 12.7637 22.6859 12.7423C22.6705 12.721 22.6512 12.6951 22.6333 12.6718C22.6154 12.6484 22.598 12.6246 22.5801 12.6017C22.5258 12.5315 22.4706 12.4626 22.4146 12.395C22.3962 12.3716 22.3769 12.3493 22.3575 12.3274C22.0515 11.967 21.7117 11.6367 21.3428 11.341C21.3199 11.3216 21.2966 11.3033 21.2732 11.2854C21.226 11.2486 21.1788 11.2123 21.1316 11.177L21.0595 11.1244L20.9865 11.0722L20.9368 11.0379L20.8921 11.0071C20.8672 10.9902 20.8424 10.9733 20.818 10.9574C20.7683 10.9241 20.7186 10.8918 20.6689 10.858L20.5934 10.8108L20.5174 10.7651C20.4677 10.7348 20.418 10.7045 20.3638 10.6752L20.2863 10.6319C20.2366 10.6031 20.183 10.5753 20.1303 10.5484C20.1044 10.535 20.0776 10.5216 20.0518 10.5077C20.0021 10.4809 19.9484 10.458 19.8962 10.4307H19.8928C19.7079 10.3422 19.5191 10.2612 19.3248 10.1882L19.2423 10.1574L19.1588 10.1271L19.1022 10.1077L19.0415 10.0868C18.965 10.062 18.8885 10.0371 18.812 10.0148L18.7399 9.99338L18.6833 9.97748L18.5933 9.95264C20.8765 10.5345 22.9393 11.7722 24.527 13.513C26.1148 15.2538 27.158 17.4215 27.5279 19.7484L27.5249 19.7504Z" fill="url(#paint3_linear_1270_370)"/>
<path d="M30.66 8.11363C30.5726 7.97946 30.4826 7.84977 30.3907 7.72156C30.3256 7.63013 30.2595 7.53969 30.1919 7.45074C30.1422 7.38614 30.0925 7.32204 30.0428 7.25943C30.0071 7.21272 29.9703 7.1675 29.933 7.12277C29.8908 7.0696 29.8475 7.01743 29.8038 6.96624C29.7601 6.91506 29.7258 6.87432 29.6865 6.8291C29.6662 6.80524 29.6453 6.78189 29.6249 6.75953C29.5961 6.72574 29.5673 6.69294 29.5375 6.66014C29.4928 6.61045 29.4475 6.56076 29.4013 6.51107C29.3551 6.46137 29.3119 6.41467 29.2662 6.36796C29.206 6.30584 29.1449 6.24422 29.0838 6.1831L28.9879 6.08918L28.9476 6.05092C28.9119 6.01564 28.8751 5.98085 28.8388 5.94706C28.8333 5.94259 28.8289 5.93762 28.8239 5.93315C28.7827 5.89489 28.7419 5.85613 28.7002 5.81886L28.642 5.76668C28.6127 5.73985 28.5829 5.71401 28.5536 5.68817L28.5128 5.65289C28.4721 5.61711 28.4313 5.58183 28.3896 5.54704C28.3399 5.50381 28.2902 5.46157 28.2375 5.41983C28.1983 5.38753 28.159 5.35573 28.1193 5.32442C28.0795 5.29312 28.0308 5.25386 27.9866 5.21957C27.9806 5.2146 27.9752 5.21063 27.9687 5.20616C27.9414 5.1838 27.913 5.16293 27.8847 5.14206C27.847 5.11224 27.8092 5.08391 27.7709 5.05609C27.7247 5.0213 27.678 4.98801 27.6313 4.9567C27.6144 4.94478 27.5965 4.93235 27.5816 4.91993C27.5394 4.88962 27.4971 4.8603 27.4554 4.83148L27.443 4.82353C27.4027 4.79521 27.363 4.76788 27.3227 4.74154C27.2825 4.7152 27.2526 4.69433 27.2174 4.67147L27.1761 4.64414C27.1364 4.6188 27.0976 4.59445 27.0583 4.56911C26.9883 4.52438 26.9177 4.48115 26.8467 4.43792C26.8059 4.41307 26.7637 4.38823 26.7209 4.36338C26.705 4.35344 26.6886 4.34351 26.6712 4.33456C26.6245 4.30673 26.5773 4.2799 26.5291 4.25307C26.4809 4.22623 26.4362 4.20039 26.389 4.17455L26.3259 4.14076C26.2916 4.12188 26.2568 4.103 26.2215 4.08511C26.2051 4.07616 26.1897 4.06772 26.1718 4.06026C26.1251 4.03591 26.0779 4.01057 26.0312 3.98771L26.0079 3.97628C25.9631 3.95342 25.9184 3.93106 25.8722 3.9097C25.8548 3.90025 25.8369 3.89181 25.819 3.88336C25.7813 3.86497 25.744 3.84708 25.7052 3.82919L25.6416 3.80037C25.6039 3.78199 25.5651 3.7646 25.5268 3.7477L25.4682 3.72236C25.4299 3.70447 25.3917 3.68757 25.3524 3.67266C25.335 3.66422 25.3166 3.65726 25.2988 3.64981C25.2491 3.62844 25.1994 3.60707 25.1497 3.58769C25.1 3.56831 25.0468 3.54496 24.9941 3.52508L24.9474 3.50669L24.7939 3.44855C24.7387 3.42818 24.6831 3.4083 24.6269 3.38843L24.5916 3.37551C24.5419 3.35762 24.4923 3.34023 24.4426 3.32582L24.4286 3.32134C24.372 3.30246 24.3144 3.28308 24.2567 3.26519H24.2532C24.1941 3.24581 24.1335 3.22743 24.0729 3.20904C24.0122 3.19065 23.9511 3.17276 23.89 3.15537L23.7086 3.10568L23.6977 3.1032C23.648 3.08928 23.5953 3.07636 23.5436 3.06344C23.4631 3.04257 23.3806 3.02319 23.2992 3.00481C23.2495 2.99238 23.1998 2.98095 23.1501 2.97102C23.088 2.9571 23.0258 2.94368 22.9632 2.93226C22.9006 2.92083 22.8494 2.9084 22.7923 2.89847C22.7699 2.89499 22.7481 2.89051 22.7257 2.88654C22.681 2.87759 22.6353 2.87064 22.5905 2.86269H22.5841C22.523 2.85176 22.4613 2.84231 22.3997 2.83337C22.3381 2.82442 22.274 2.81399 22.2114 2.80654C21.9525 2.77026 21.6921 2.74392 21.4307 2.72554C21.3741 2.72107 21.3174 2.71759 21.2608 2.7146C21.1172 2.70616 20.9721 2.70069 20.828 2.69821C20.7186 2.69523 20.6103 2.69423 20.501 2.69523H20.4955C20.3673 2.69523 20.2391 2.6992 20.1114 2.70417C18.0236 2.78633 15.993 3.40936 14.2183 4.51224C12.4437 5.61511 10.986 7.16001 9.98789 8.99562C8.9898 10.8312 8.48561 12.8946 8.52469 14.9837C8.56376 17.0727 9.14477 19.1158 10.2108 20.9128L10.2605 20.9943L10.3147 21.0837L10.3703 21.1727C10.415 21.2426 10.4604 21.3115 10.5065 21.3794C10.5229 21.4042 10.5398 21.4291 10.5562 21.4519C10.5726 21.4748 10.59 21.5016 10.6059 21.524C10.6218 21.5463 10.6401 21.5737 10.6555 21.595C10.6709 21.6164 10.6903 21.6423 10.7082 21.6656C10.7261 21.689 10.7435 21.7153 10.7614 21.7357C10.8157 21.8056 10.8709 21.8745 10.9269 21.9424C10.9452 21.9657 10.9646 21.9881 10.984 22.01C11.2903 22.3705 11.6304 22.7008 11.9997 22.9964C12.0226 23.0157 12.0459 23.0341 12.0693 23.052C12.116 23.0888 12.1637 23.1251 12.2109 23.1603L12.283 23.213C12.3073 23.2304 12.3326 23.2483 12.356 23.2627L12.4057 23.297L12.4504 23.3278C12.4753 23.3447 12.5001 23.3616 12.5245 23.3775C12.5741 23.4108 12.6238 23.4431 12.6735 23.4769L12.7491 23.5241L12.8251 23.5698C12.8748 23.6001 12.9245 23.6304 12.9781 23.6597C13.004 23.6737 13.0278 23.6881 13.0557 23.703C13.1073 23.7318 13.1595 23.7596 13.2122 23.7865L13.2917 23.8277C13.3414 23.8545 13.3951 23.8774 13.4472 23.9047H13.4507C13.6356 23.9932 13.8244 24.0742 14.0187 24.1472L14.1012 24.178L14.1847 24.2083L14.2413 24.2277L14.3019 24.2486C14.3785 24.2734 14.455 24.2983 14.5315 24.3206L14.6036 24.342L14.6602 24.3579L14.7502 24.3828C12.7257 23.8654 10.8702 22.8313 9.36525 21.3817C7.86033 19.932 6.75753 18.1165 6.16477 16.1128C5.57201 14.1091 5.5096 11.9858 5.98364 9.95075C6.45769 7.91568 7.45194 6.03854 8.86912 4.50302C8.95608 4.4091 9.04453 4.31618 9.13398 4.22524L9.13845 4.22126C9.21498 4.14325 9.29249 4.06722 9.3715 3.99218C9.47536 3.8928 9.5817 3.79342 9.68904 3.69801C9.73127 3.65975 9.77401 3.62248 9.81724 3.58521C10.016 3.41394 10.2189 3.2483 10.426 3.08829C10.4757 3.05003 10.5254 3.01176 10.579 2.974C10.6327 2.93623 10.6784 2.90095 10.7281 2.86467L10.7336 2.8612L10.8459 2.78219L10.9015 2.74392C10.9512 2.71063 10.9974 2.67833 11.0461 2.64454C11.0948 2.61075 11.152 2.57398 11.2056 2.53969C11.2484 2.51236 11.2911 2.48503 11.3348 2.4582C11.4059 2.41347 11.4774 2.36925 11.5495 2.32701C11.5947 2.29918 11.6404 2.27235 11.6862 2.24601C11.6895 2.24457 11.6927 2.24273 11.6956 2.24054C11.7503 2.20924 11.8049 2.17793 11.8596 2.14762C11.9142 2.11731 11.9709 2.0865 12.027 2.05619C12.0832 2.02588 12.1384 1.99656 12.194 1.96823H12.197C12.2507 1.94041 12.3048 1.91308 12.3585 1.88674L12.3714 1.88028C12.4211 1.85643 12.4673 1.83059 12.5155 1.80972L12.5498 1.79381C12.6035 1.76797 12.6566 1.74412 12.7108 1.71828C12.765 1.69244 12.8102 1.67257 12.8599 1.6512L12.9061 1.63082C12.9558 1.60846 13.0085 1.5861 13.0601 1.56473C13.1118 1.54337 13.1595 1.52299 13.2092 1.50312C13.2271 1.49517 13.245 1.48771 13.2634 1.48125C13.3026 1.46535 13.3414 1.44995 13.3806 1.43504L13.4403 1.41168L13.5585 1.36746L13.6241 1.34311C13.6639 1.3287 13.7036 1.31429 13.7429 1.30087L13.7991 1.28149C13.8487 1.2646 13.8945 1.24869 13.9422 1.2318L13.967 1.22385C14.0167 1.20695 14.0664 1.19105 14.1161 1.17416C14.1325 1.16819 14.1499 1.16322 14.1658 1.15825C14.2035 1.14583 14.2413 1.1344 14.2791 1.12297L14.3477 1.1026C14.3973 1.08769 14.4505 1.07278 14.5027 1.05887C14.5549 1.04496 14.6075 1.02955 14.6602 1.01614L14.7154 1.00172C14.7624 0.989468 14.8096 0.977541 14.857 0.965947C14.9375 0.94607 15.0182 0.927022 15.099 0.908801C15.1442 0.898863 15.1894 0.888427 15.2351 0.878986L15.2848 0.869048C15.3266 0.860103 15.3678 0.852152 15.4091 0.844202C15.4503 0.836251 15.504 0.825319 15.5517 0.817368L15.5661 0.813889L15.7182 0.787056L15.7803 0.777118C15.8374 0.767676 15.8941 0.758732 15.9512 0.750284C15.9984 0.743327 16.0456 0.73637 16.0923 0.730407C16.1271 0.725438 16.1619 0.720469 16.1972 0.716494C16.2044 0.715013 16.2117 0.714017 16.219 0.713512C16.2747 0.706059 16.3309 0.699598 16.387 0.693635C16.4432 0.687672 16.4864 0.682206 16.5386 0.677237C16.6042 0.67028 16.6698 0.664814 16.7373 0.659348C16.791 0.654875 16.8452 0.6509 16.8993 0.647422C16.9167 0.647422 16.9351 0.64444 16.9525 0.643943C16.9923 0.640962 17.0315 0.638477 17.0713 0.63649L17.1488 0.632514C17.2049 0.629533 17.2611 0.627545 17.3177 0.625557H17.3376C17.3873 0.625557 17.437 0.622079 17.4867 0.621582C17.5051 0.621582 17.5235 0.621582 17.5418 0.621582H17.6765C17.763 0.621582 17.8499 0.621582 17.9364 0.621582C18.002 0.621582 18.0671 0.624564 18.1327 0.627048C18.1983 0.629533 18.2674 0.632017 18.3344 0.635496C18.3777 0.635496 18.4219 0.639968 18.4651 0.642949L18.5585 0.648913C18.6182 0.652888 18.6778 0.65736 18.7379 0.662826C18.8055 0.668293 18.8731 0.674752 18.9402 0.682206C18.9983 0.687672 19.0565 0.693636 19.1146 0.701089C19.1946 0.709537 19.2751 0.719972 19.3551 0.730904C19.4658 0.746474 19.5766 0.763038 19.6875 0.780596C19.8429 0.805773 19.9988 0.834429 20.1551 0.866563L20.2014 0.876502L20.2461 0.88644C20.4336 0.92785 20.6201 0.972241 20.8056 1.01961C20.8319 1.02607 20.8578 1.03253 20.8831 1.03999C21.0769 1.09067 21.2689 1.14434 21.4591 1.20099C21.5227 1.22037 21.5853 1.23925 21.6484 1.25913C21.6946 1.27354 21.7408 1.28795 21.787 1.30336L21.8437 1.32124C21.8968 1.33913 21.95 1.35603 22.0027 1.37441L22.0191 1.37988C23.3157 1.81854 24.5534 2.41519 25.7042 3.15637C26.0415 3.37402 26.3714 3.60442 26.6941 3.84758C26.8959 3.99964 27.0946 4.156 27.2904 4.31667C28.0955 4.98505 28.8359 5.72774 29.5017 6.53492C29.5842 6.6343 29.6657 6.73518 29.7462 6.83754C29.7864 6.88723 29.8262 6.93991 29.8659 6.99159C29.9057 7.04327 29.936 7.08252 29.9708 7.12824C30.0056 7.17396 30.0409 7.22116 30.0751 7.26837C30.1094 7.31558 30.1497 7.37024 30.1864 7.42192L30.1939 7.43136C30.2337 7.48702 30.2729 7.54217 30.3122 7.59833C30.4311 7.76595 30.547 7.93772 30.66 8.11363Z" fill="url(#paint4_linear_1270_370)"/>
<path d="M20.2798 23.7034C20.324 23.6796 20.3688 23.6537 20.413 23.6284C18.6156 24.6944 16.5722 25.2754 14.4828 25.3146C12.3934 25.3537 10.3296 24.8497 8.4935 23.8519C6.65737 22.854 5.1118 21.3965 4.00807 19.622C2.90433 17.8475 2.28026 15.8169 2.19693 13.7288C2.19196 13.6006 2.18898 13.4725 2.18799 13.3446V13.3387C2.18799 13.2294 2.18799 13.121 2.19097 13.0122C2.19395 12.8676 2.19892 12.723 2.20786 12.5794C2.21035 12.5222 2.21433 12.4661 2.2183 12.4094C2.23669 12.1481 2.26352 11.8872 2.2993 11.6288C2.30725 11.5662 2.31619 11.5031 2.32613 11.44C2.33607 11.3768 2.34501 11.3172 2.35595 11.2561C2.35595 11.2561 2.35595 11.2516 2.35595 11.2496C2.3634 11.2049 2.37085 11.1592 2.3793 11.114C2.38377 11.0916 2.38775 11.0702 2.39172 11.0474C2.40166 10.9907 2.41309 10.9336 2.42502 10.8769C2.43694 10.8203 2.45036 10.7522 2.46378 10.6901C2.47471 10.6404 2.48614 10.5907 2.49807 10.541C2.51595 10.4595 2.53583 10.3775 2.5567 10.2965C2.56913 10.2469 2.58254 10.1937 2.59596 10.1425C2.59736 10.1392 2.5982 10.1357 2.59844 10.1321L2.64814 9.95019C2.66503 9.88907 2.68342 9.82795 2.7018 9.76732C2.72019 9.7067 2.73857 9.64707 2.75795 9.58744C2.75795 9.58744 2.75795 9.58744 2.75795 9.58396C2.77584 9.52582 2.79522 9.46867 2.8146 9.41203C2.81629 9.4075 2.81762 9.40285 2.81858 9.39811C2.83647 9.34842 2.85336 9.29873 2.87125 9.24606C2.87473 9.23463 2.8797 9.2232 2.88417 9.21077C2.90355 9.15462 2.92343 9.09897 2.9443 9.04381C2.96517 8.98865 2.98256 8.94144 3.00194 8.89076C3.0084 8.87535 3.01436 8.85945 3.02033 8.84405C3.0407 8.79088 3.06157 8.7392 3.08294 8.68801C3.10431 8.63683 3.12418 8.58863 3.14505 8.53894C3.15251 8.52055 3.15996 8.50266 3.16791 8.48527C3.18481 8.44602 3.20121 8.40775 3.2176 8.36949C3.22605 8.35011 3.234 8.33023 3.24344 8.31085C3.26084 8.27259 3.27773 8.23433 3.29314 8.19607L3.32196 8.13246C3.34034 8.0942 3.35873 8.05643 3.37612 8.01866C3.3844 8.00078 3.39335 7.98289 3.40296 7.965C3.42383 7.91878 3.44619 7.87406 3.46905 7.82984L3.48097 7.80648C3.50433 7.75927 3.53066 7.71207 3.55303 7.66585C3.56098 7.64995 3.56942 7.63455 3.57837 7.61616C3.59626 7.58088 3.61514 7.54609 3.63353 7.51131C3.64495 7.49044 3.65589 7.46957 3.66781 7.4482C3.69365 7.40149 3.7175 7.35428 3.74583 7.30807C3.77415 7.26186 3.7995 7.21316 3.82782 7.16595C3.83677 7.15005 3.84621 7.13316 3.85615 7.11626C3.88099 7.07353 3.90584 7.03179 3.93118 6.99054C3.97392 6.91948 4.01715 6.84892 4.06187 6.77885L4.1369 6.66158C4.14635 6.64816 4.15529 6.63425 4.16473 6.62034C4.18759 6.58456 4.21095 6.54928 4.2348 6.51449C4.26113 6.47474 4.28847 6.43449 4.31629 6.39473C4.31878 6.39026 4.32176 6.38629 4.32424 6.38231L4.41319 6.2556L4.44996 6.2059C4.48309 6.15919 4.51622 6.11248 4.54935 6.06577L4.63531 5.95198C4.65619 5.92365 4.67755 5.89632 4.69991 5.868C4.70439 5.86154 4.70836 5.85657 4.71333 5.85061C4.74712 5.80589 4.7824 5.76166 4.81768 5.71743C4.85297 5.67321 4.88079 5.63842 4.91309 5.59917C4.95533 5.54948 4.99757 5.4973 5.0403 5.44711C5.07509 5.40586 5.11037 5.36462 5.14615 5.32437C5.15758 5.31046 5.1695 5.29654 5.18143 5.28362C5.20727 5.25381 5.23112 5.22449 5.26044 5.19517L5.31013 5.13703C5.3479 5.09529 5.38616 5.05454 5.42442 5.0128L5.43883 4.99839C5.47262 4.96212 5.50741 4.92534 5.54219 4.88907C5.55462 4.87565 5.56754 4.86273 5.58046 4.84932C5.61176 4.81751 5.64307 4.78472 5.67487 4.75291C5.73599 4.69229 5.79711 4.63117 5.85972 4.57104C5.90942 4.52532 5.95464 4.4806 6.00284 4.43588C6.05104 4.39116 6.10222 4.34445 6.15191 4.29972C6.18371 4.26991 6.21651 4.24059 6.2513 4.21177L6.32136 4.15065C6.36608 4.11089 6.4118 4.07164 6.45851 4.03337C6.50522 3.99511 6.56187 3.94592 6.61454 3.90418C6.65927 3.86641 6.70498 3.83013 6.7512 3.79386C6.81447 3.7435 6.87841 3.69381 6.94301 3.64478C7.03146 3.5772 7.12239 3.51111 7.21333 3.44602C7.34154 3.35409 7.47173 3.26464 7.6054 3.17669H7.60788C7.6213 3.16824 7.63422 3.16029 7.64714 3.15134L7.69385 3.12103L7.75696 3.08078C7.86628 3.01171 7.9766 2.94413 8.08791 2.87704C8.1376 2.84574 8.19077 2.81592 8.24195 2.78611C8.42283 2.68026 8.60371 2.57889 8.78608 2.481C8.8467 2.4482 8.90683 2.4164 8.96746 2.38509L8.97789 2.37963L9.14684 2.29267L9.30288 2.21465L9.45791 2.13962L9.63382 2.05613C9.75159 2.00147 9.87036 1.9478 9.98862 1.89613C10.945 1.47733 11.9385 1.14925 12.9562 0.916201C13.2024 0.860546 13.4497 0.810854 13.6981 0.767125C14.0957 0.694906 14.494 0.637595 14.8932 0.595191C16.2546 0.451522 17.6284 0.475721 18.9839 0.667245H19.0007L19.1662 0.691594L19.2254 0.701035L19.369 0.723893L19.5638 0.757684C19.7595 0.792469 19.9553 0.830731 20.1511 0.872472C19.9951 0.839344 19.8392 0.810689 19.6835 0.786506C19.5725 0.767623 19.4617 0.751059 19.3511 0.736814C19.2711 0.725881 19.1906 0.715446 19.1106 0.706998C19.0524 0.699544 18.9943 0.693581 18.9361 0.688115C18.8691 0.680661 18.8015 0.674201 18.7339 0.668735C18.6738 0.663269 18.6141 0.658797 18.5545 0.654822C18.5232 0.654822 18.4924 0.65035 18.4611 0.648859C18.4179 0.645877 18.3736 0.642895 18.3304 0.641405C18.2633 0.637926 18.1957 0.634448 18.1287 0.632957C18.0616 0.631466 17.9975 0.627988 17.9324 0.627491C17.8459 0.627491 17.7589 0.625006 17.6725 0.627491H17.5378C17.5194 0.627491 17.501 0.627491 17.4827 0.627491C17.433 0.627491 17.3833 0.627491 17.3336 0.631466H17.3137C17.2571 0.631466 17.2009 0.635442 17.1448 0.638423L17.0672 0.642399C17.0275 0.642399 16.9882 0.646871 16.9485 0.649853C16.9311 0.649853 16.9127 0.649852 16.8953 0.653331C16.8411 0.656809 16.787 0.660785 16.7333 0.665257C16.6672 0.670723 16.6016 0.676189 16.5345 0.683146C16.4848 0.688116 16.4352 0.693582 16.383 0.699545C16.3308 0.705508 16.2707 0.711967 16.215 0.719421C16.2077 0.719926 16.2004 0.720922 16.1932 0.722403C16.1584 0.725881 16.1231 0.731347 16.0883 0.736316C16.0416 0.742279 15.9944 0.749237 15.9472 0.756194C15.89 0.764641 15.8334 0.773585 15.7762 0.783027L15.7141 0.792965L15.5621 0.819799L15.5477 0.823277C15.498 0.831228 15.4522 0.840173 15.405 0.850111C15.3578 0.86005 15.3226 0.866013 15.2808 0.874957L15.2311 0.884895C15.1854 0.894337 15.1402 0.904772 15.095 0.91471C15.0138 0.933262 14.9331 0.952311 14.853 0.971856C14.8056 0.98312 14.7584 0.995046 14.7113 1.00763L14.6562 1.02204C14.6035 1.03546 14.5508 1.04938 14.4987 1.06478C14.4465 1.08018 14.3948 1.0936 14.3436 1.10851L14.275 1.12888C14.2373 1.13982 14.1995 1.15124 14.1618 1.16416C14.1444 1.16913 14.127 1.1741 14.1121 1.18007C14.0624 1.19547 14.0127 1.21137 13.963 1.22976L13.9381 1.23771C13.8884 1.25361 13.8427 1.26901 13.795 1.2874L13.7389 1.30678C13.6996 1.3202 13.6599 1.33461 13.6201 1.34902L13.5545 1.37337C13.5153 1.38728 13.4755 1.40269 13.4362 1.41759L13.3766 1.44095C13.3374 1.45536 13.2986 1.47076 13.2593 1.48716C13.241 1.49362 13.2231 1.50107 13.2052 1.50903C13.1555 1.52841 13.1058 1.54878 13.0561 1.57064C13.0064 1.59251 12.9537 1.61388 12.9021 1.63673L12.8558 1.65711C12.8062 1.67847 12.7565 1.70133 12.7068 1.72419C12.6571 1.74705 12.5994 1.77388 12.5458 1.79972L12.5115 1.81562C12.4618 1.83848 12.4156 1.86233 12.3674 1.88619L12.3545 1.89265C12.3008 1.91898 12.2466 1.94631 12.193 1.97414H12.19C12.1343 2.0023 12.0787 2.03162 12.023 2.0621C11.9669 2.09191 11.9112 2.12173 11.8555 2.15353C11.7999 2.18533 11.7462 2.21515 11.6916 2.24645C11.6886 2.24864 11.6855 2.25048 11.6821 2.25192C11.6364 2.27826 11.5907 2.30509 11.5455 2.33292C11.4734 2.37516 11.4019 2.41938 11.3308 2.4641C11.2866 2.49094 11.2438 2.51777 11.2016 2.5456C11.1474 2.57989 11.0943 2.61467 11.0421 2.65045C10.9899 2.68623 10.9452 2.71455 10.8975 2.74983L10.8418 2.7881C10.8041 2.81394 10.7663 2.84077 10.7295 2.86711L10.7241 2.87058C10.6744 2.90686 10.6247 2.94313 10.575 2.97991C10.5253 3.01668 10.4721 3.05593 10.4219 3.0942C10.2136 3.25222 10.0107 3.41786 9.81321 3.59112C9.76998 3.62839 9.72724 3.66565 9.68501 3.70392C9.57767 3.79982 9.47133 3.89821 9.36748 3.99809C9.28847 4.07313 9.21095 4.14717 9.13442 4.22717L9.12995 4.23115C9.0405 4.32208 8.95205 4.41501 8.86509 4.50893C7.44757 6.04398 6.45304 7.92088 5.97888 9.95581C5.50473 11.9907 5.56721 14.1139 6.16021 16.1175C6.75322 18.121 7.8564 19.9361 9.36174 21.3852C10.8671 22.8342 12.723 23.8675 14.7476 24.3837L14.84 24.4076C14.9081 24.4244 14.9757 24.4408 15.0443 24.4572C15.1129 24.4736 15.1675 24.4841 15.2291 24.4965L15.2868 24.5074L15.3608 24.5209C15.4393 24.5353 15.5188 24.5477 15.5983 24.5596L15.662 24.5686L15.7211 24.5765L15.809 24.5874L15.8965 24.5969C16.1026 24.6187 16.3081 24.6318 16.5132 24.6361C16.5137 24.6359 16.5143 24.6358 16.5149 24.6358C16.5155 24.6358 16.5161 24.6359 16.5166 24.6361C16.5748 24.6361 16.6319 24.6361 16.6901 24.6361H16.7785C16.8377 24.6361 16.8968 24.6361 16.9559 24.6322C16.9852 24.6322 17.0151 24.6292 17.0444 24.6282C17.104 24.6252 17.1631 24.6217 17.2218 24.6173L17.3102 24.6103C17.34 24.6078 17.3699 24.6053 17.3992 24.6019C17.4583 24.5964 17.5169 24.5899 17.5761 24.5825C17.6054 24.579 17.6347 24.5755 17.6645 24.571L17.7182 24.5641L17.7768 24.5551L17.8658 24.5417L17.9537 24.5268C18.0119 24.5164 18.0705 24.5054 18.1292 24.4935C18.158 24.4886 18.1868 24.4826 18.2161 24.4756C18.4462 24.4259 18.6763 24.3673 18.9034 24.2952C19.1283 24.2252 19.3496 24.1438 19.5662 24.0513C19.5936 24.0403 19.6209 24.0289 19.6477 24.0165C19.7286 23.9834 19.8087 23.9466 19.8882 23.9062C19.9151 23.8942 19.9414 23.8813 19.9678 23.8679C19.9941 23.8545 20.0204 23.8421 20.0463 23.8286C20.0721 23.8152 20.0984 23.8018 20.1243 23.7884L20.2023 23.7471L20.2798 23.7034Z" fill="url(#paint5_linear_1270_370)"/>
<path d="M24.8101 19.1071C24.9342 22.3046 23.784 25.4206 21.6123 27.7707C19.4405 30.1208 16.4247 31.5128 13.2274 31.6408C13.1215 31.6453 13.0152 31.6483 12.9088 31.6488C12.6698 31.6523 12.4298 31.6488 12.1908 31.6359C12.1476 31.6359 12.1038 31.6319 12.0601 31.6294C11.748 31.6115 11.4375 31.5812 11.1284 31.5385C11.0712 31.531 11.0136 31.5231 10.9569 31.5141L10.9346 31.5107C10.8998 31.5057 10.865 31.5002 10.8307 31.4943L10.7179 31.4759L10.6956 31.4719C10.6369 31.4615 10.5793 31.4515 10.5211 31.4401C10.463 31.4287 10.4173 31.4207 10.3656 31.4103C10.3139 31.3998 10.2518 31.3869 10.1952 31.3745H10.1867L10.0689 31.3482L9.96956 31.3253L9.79614 31.2826L9.68433 31.2537L9.61129 31.2344L9.44979 31.1901C9.38817 31.1727 9.32804 31.1544 9.26692 31.1365C9.2058 31.1186 9.14617 31.0997 9.08654 31.0803C9.08542 31.0807 9.08418 31.0807 9.08306 31.0803C9.03337 31.0644 8.98368 31.0485 8.93399 31.0306C8.88429 31.0127 8.84106 31.0003 8.79584 30.9844L8.68254 30.9442L8.5121 30.8821L8.41272 30.8438C8.38688 30.8343 8.36303 30.8239 8.33619 30.814C8.2865 30.7951 8.23681 30.7747 8.18712 30.7543C8.13742 30.734 8.08773 30.7136 8.03804 30.6922L7.98437 30.6694C7.94959 30.6545 7.91431 30.6396 7.88002 30.6242C7.84573 30.6087 7.81691 30.5963 7.78561 30.5819L7.72647 30.5556L7.60324 30.4979L7.54957 30.4726L7.43727 30.4184C7.41192 30.406 7.38757 30.3941 7.36124 30.3807C7.3349 30.3672 7.30409 30.3528 7.27626 30.3379C7.24844 30.323 7.21812 30.3091 7.1893 30.2932C7.15203 30.2748 7.11526 30.2554 7.07899 30.2361L7.03923 30.2147L6.92892 30.1551L6.82953 30.0999C6.78332 30.0741 6.73661 30.0502 6.6904 30.0209C6.6581 30.0025 6.62629 29.9836 6.59449 29.9647L6.50803 29.915L6.39572 29.8405L6.36939 29.8241C6.33212 29.8013 6.29485 29.7774 6.25808 29.754C6.23174 29.7381 6.2054 29.7208 6.17956 29.7044C6.15372 29.688 6.11745 29.6636 6.08664 29.6432C6.06776 29.6313 6.04887 29.6189 6.03049 29.606C5.98477 29.5757 5.93905 29.5448 5.89433 29.5135L5.8839 29.5071C5.84166 29.4778 5.79942 29.4484 5.75768 29.4186C5.74128 29.4062 5.72339 29.3938 5.70799 29.3819C5.66128 29.3481 5.61457 29.3148 5.56835 29.2825C5.53009 29.2541 5.49183 29.2258 5.45456 29.1965C5.42623 29.1756 5.39791 29.1548 5.37058 29.1324C5.3643 29.1284 5.35832 29.1239 5.35269 29.119C5.30896 29.0852 5.26523 29.0504 5.222 29.0156C5.17877 28.9808 5.1415 28.951 5.10125 28.9162C5.05156 28.875 4.99938 28.8323 4.94919 28.789C4.899 28.7458 4.86472 28.7175 4.82248 28.6807C4.81055 28.6708 4.79912 28.6598 4.7867 28.6494C4.74844 28.6156 4.71017 28.5823 4.67241 28.55C4.66346 28.5426 4.65452 28.5341 4.64557 28.5257C4.60085 28.4854 4.55712 28.4452 4.51339 28.4039L4.50047 28.392C4.4637 28.3577 4.42743 28.3234 4.39165 28.2881L4.3514 28.2499L4.25549 28.156L4.2058 28.1063C4.16158 28.062 4.11785 28.0178 4.07462 27.9726C4.03138 27.9274 3.98219 27.8762 3.93647 27.827C3.89075 27.7778 3.84504 27.7276 3.80032 27.6779C3.771 27.6461 3.74168 27.6138 3.71286 27.5785C3.69199 27.5557 3.67161 27.5328 3.65124 27.509C3.61198 27.4637 3.57273 27.418 3.53397 27.3718C3.49521 27.3256 3.4475 27.2685 3.40477 27.2153C3.3675 27.1706 3.33122 27.1248 3.29495 27.0786C3.24526 27.016 3.19556 26.9519 3.14587 26.8873C3.07829 26.7979 3.0122 26.7084 2.94711 26.6165C2.85766 26.4928 2.7712 26.368 2.68523 26.2373L2.67728 26.2244V26.2219C2.67208 26.2148 2.66727 26.2073 2.66287 26.1996C2.65591 26.1906 2.65044 26.1812 2.64448 26.1718C2.58833 26.0848 2.53317 25.9968 2.47901 25.9089C2.44472 25.8537 2.41093 25.7991 2.37962 25.7434C2.35726 25.7061 2.3349 25.6689 2.31304 25.6316C2.30409 25.6172 2.29614 25.6033 2.28819 25.5889C2.28819 25.5889 2.28521 25.5849 2.28422 25.5824L2.28024 25.5759C2.24744 25.5198 2.21564 25.4641 2.18384 25.4085C2.14905 25.3489 2.11576 25.2887 2.08445 25.2281C2.05514 25.1754 2.02582 25.1218 1.997 25.0686C1.96818 25.0154 1.94283 24.9692 1.9165 24.9165C1.91302 24.9101 1.90904 24.9036 1.90606 24.8967C1.90308 24.8897 1.89562 24.8783 1.89165 24.8693L1.84643 24.7819C1.83616 24.7627 1.82622 24.7433 1.81661 24.7237C1.81115 24.7133 1.80568 24.7029 1.80071 24.6924L1.76295 24.6229C1.74953 24.597 1.73711 24.5732 1.72419 24.5463C1.7217 24.5414 1.71922 24.5364 1.71723 24.5314C1.69089 24.4783 1.66754 24.4246 1.63921 24.3714C1.61089 24.3182 1.58356 24.2536 1.55573 24.195C1.5279 24.1364 1.50157 24.0767 1.47473 24.0176C1.4325 23.9242 1.39125 23.8313 1.351 23.7373L1.3197 23.6648C1.31938 23.6637 1.31938 23.6625 1.3197 23.6613C1.3197 23.6613 1.3197 23.6613 1.3197 23.6578C1.30926 23.6335 1.29932 23.6081 1.28938 23.5853C1.22313 23.4306 1.16068 23.2749 1.10204 23.1182C1.07869 23.0576 1.05583 22.9964 1.03297 22.9353C0.974005 22.7756 0.917522 22.6151 0.863524 22.4538C0.813832 22.3061 0.766293 22.157 0.720908 22.0066C0.683142 21.882 0.646701 21.757 0.611586 21.6314C0.578458 21.5059 0.54533 21.3796 0.512202 21.2528C0.479074 21.1262 0.448596 20.9992 0.420769 20.8716C0.406358 20.8075 0.391947 20.7439 0.378034 20.6798L0.339274 20.4954C0.339274 20.493 0.339274 20.49 0.339274 20.488C0.332317 20.4527 0.325361 20.4174 0.318901 20.3826C0.312441 20.3479 0.307471 20.3245 0.301508 20.2947C0.29306 20.25 0.284613 20.2052 0.276662 20.1595L0.266227 20.1074C0.243037 19.9748 0.221008 19.8423 0.200137 19.7098C0.190695 19.6467 0.181254 19.5836 0.172806 19.5205C0.164359 19.4574 0.154917 19.3908 0.145973 19.3257C0.137028 19.2606 0.129574 19.195 0.121624 19.1299C0.11417 19.0648 0.106716 18.9997 0.0997591 18.9346C-0.0441464 17.5735 -0.0199465 16.1997 0.171813 14.8445C0.172301 14.8385 0.172301 14.8325 0.171813 14.8266C0.18026 14.7729 0.187714 14.7188 0.196161 14.6656C0.19964 14.6412 0.203118 14.6159 0.20759 14.5935C0.21405 14.5488 0.221504 14.5036 0.228958 14.4589C0.239393 14.3943 0.250823 14.3292 0.262252 14.2641C0.297036 14.0686 0.335465 13.873 0.377537 13.6772C0.344409 13.8326 0.315588 13.9885 0.291073 14.1448C0.272687 14.2551 0.255295 14.366 0.241381 14.4768C0.230449 14.5573 0.220013 14.6373 0.211069 14.7173C0.204112 14.7754 0.197652 14.8341 0.192186 14.8917C0.184732 14.9588 0.178769 15.0264 0.173303 15.0939C0.167837 15.1615 0.163365 15.2137 0.158893 15.2738C0.158893 15.3046 0.15442 15.3359 0.153426 15.3667C0.149948 15.4105 0.147463 15.4542 0.145476 15.4979C0.141997 15.565 0.138519 15.6326 0.137028 15.6997C0.135537 15.7668 0.132556 15.8309 0.131562 15.896C0.131562 15.9824 0.131562 16.0689 0.131562 16.1554V16.29C0.131562 16.3084 0.131562 16.3268 0.131562 16.3457C0.131562 16.3954 0.131562 16.4451 0.135537 16.4948C0.135537 16.5012 0.135537 16.5077 0.135537 16.5146C0.135537 16.5713 0.139513 16.6274 0.142494 16.6831C0.142494 16.7089 0.142494 16.7328 0.14647 16.7606C0.14647 16.8004 0.150445 16.8401 0.153426 16.8794C0.153426 16.8973 0.153426 16.9151 0.156905 16.933C0.160383 16.9867 0.164359 17.0409 0.169328 17.0945C0.174297 17.1606 0.18026 17.2267 0.187217 17.2933C0.192186 17.343 0.197155 17.3927 0.203118 17.4424C0.209081 17.4921 0.216038 17.5547 0.222995 17.6103L0.225977 17.6322C0.229952 17.6675 0.234921 17.7023 0.23989 17.7371C0.24635 17.7867 0.25281 17.831 0.259767 17.8782C0.268215 17.9353 0.277159 17.9925 0.286601 18.0491L0.297036 18.1112C0.305649 18.1619 0.314594 18.2126 0.32387 18.2633C0.32387 18.2683 0.32387 18.2727 0.326851 18.2777C0.334802 18.3274 0.344243 18.3731 0.353685 18.4208C0.363126 18.4685 0.370083 18.5033 0.379028 18.5445C0.382009 18.5609 0.385488 18.5773 0.388966 18.5942C0.398407 18.64 0.408346 18.6852 0.418781 18.7309C0.43667 18.8114 0.45605 18.8924 0.47543 18.9724C0.486859 19.0196 0.499282 19.0668 0.511208 19.1145C0.516177 19.1329 0.521146 19.1513 0.525619 19.1692C0.539532 19.2223 0.553446 19.2745 0.568354 19.3272C0.583261 19.3799 0.597672 19.4306 0.61258 19.4822C0.619039 19.5051 0.625996 19.5279 0.632953 19.5503C0.643886 19.5881 0.655315 19.6263 0.667738 19.6641C0.672707 19.6815 0.677676 19.6984 0.683639 19.7138C0.699043 19.7635 0.715442 19.8132 0.733331 19.8629L0.740785 19.8877C0.756686 19.9349 0.772588 19.9826 0.790477 20.0303C0.79644 20.0492 0.8029 20.0681 0.809856 20.0865C0.823273 20.1262 0.837187 20.1655 0.852094 20.2052L0.875947 20.2708C0.890357 20.3106 0.905265 20.3499 0.92067 20.3891C0.928123 20.4095 0.936074 20.4294 0.943528 20.4487C0.958435 20.488 0.973343 20.5268 0.989741 20.566C0.996698 20.5844 1.00415 20.6028 1.01161 20.6202C1.03148 20.6699 1.05186 20.7196 1.07372 20.7693C1.09558 20.8189 1.11646 20.8721 1.13931 20.9233C1.14627 20.9387 1.15323 20.9541 1.15969 20.9695C1.18155 21.0192 1.20391 21.0689 1.22677 21.1186C1.24963 21.1683 1.27646 21.2259 1.3023 21.2796C1.30777 21.291 1.31274 21.3024 1.3187 21.3134C1.34106 21.3631 1.36492 21.4098 1.38877 21.458L1.39572 21.4704C1.42206 21.5246 1.44889 21.5782 1.47722 21.6319C1.47688 21.6329 1.47688 21.6339 1.47722 21.6349C1.50505 21.6905 1.53486 21.7462 1.56517 21.8018C1.59549 21.8575 1.6248 21.9137 1.65661 21.9693C1.68841 22.025 1.71773 22.0791 1.74903 22.1333C1.7514 22.1361 1.75325 22.1393 1.7545 22.1427C1.78133 22.1885 1.80817 22.2342 1.8355 22.2794C1.87823 22.3514 1.92246 22.4235 1.96668 22.4941C1.99352 22.5383 2.02085 22.581 2.04868 22.6233C2.08247 22.6774 2.11725 22.7306 2.15303 22.7833C2.18881 22.8359 2.21713 22.8826 2.25241 22.9279L2.29067 22.9835C2.31651 23.0213 2.34335 23.0586 2.36969 23.0958C2.37113 23.0976 2.37246 23.0994 2.37366 23.1013C2.40944 23.151 2.44621 23.2007 2.48298 23.2504C2.51976 23.3001 2.55851 23.3532 2.59727 23.4029C2.75529 23.6113 2.92011 23.8144 3.09171 24.0121C3.12898 24.0554 3.16674 24.0976 3.20451 24.1399C3.30058 24.2475 3.39864 24.3535 3.49869 24.4579C3.57389 24.5371 3.65025 24.6147 3.72776 24.6909L3.73174 24.6949C3.82317 24.7844 3.9161 24.8728 4.00952 24.9603C5.54516 26.3791 7.42319 27.3745 9.45945 27.8488C11.4957 28.3232 13.6203 28.2601 15.6249 27.6659C17.6294 27.0717 19.4451 25.9667 20.8939 24.4593C22.3428 22.9519 23.3749 21.0938 23.8893 19.0673C23.8957 19.0444 23.9017 19.0216 23.9072 18.9982L23.9111 18.9818C23.9255 18.9252 23.9395 18.868 23.9519 18.8109L23.9558 18.7945C23.9608 18.7716 23.9658 18.7488 23.9703 18.7264C23.9772 18.6956 23.9837 18.6653 23.9896 18.635C24.0072 18.5495 24.0228 18.464 24.0363 18.3786C24.0458 18.3209 24.0552 18.2633 24.0627 18.2051V18.2022C24.0672 18.1738 24.0706 18.1455 24.0741 18.1172C24.1464 17.5606 24.1551 16.9976 24.1 16.4391C24.097 16.4103 24.094 16.3805 24.091 16.3506C24.088 16.3208 24.0846 16.292 24.0806 16.2627L24.0716 16.1911C24.0617 16.1136 24.0503 16.0366 24.0373 15.9596C24.0289 15.9054 24.019 15.8512 24.0085 15.7971C23.9981 15.7429 23.9867 15.6803 23.9737 15.6222C23.9683 15.5933 23.9618 15.564 23.9549 15.5352C23.9419 15.4771 23.9285 15.4199 23.9136 15.3623C23.7926 14.8754 23.6221 14.4022 23.4048 13.95C23.3923 13.9237 23.3794 13.8969 23.3665 13.871C23.3536 13.8452 23.3407 13.8183 23.3267 13.792C23.3128 13.7657 23.3004 13.7423 23.2865 13.714C23.2726 13.6857 23.2597 13.6643 23.2453 13.6365C23.2308 13.6086 23.2179 13.5868 23.203 13.559C23.1787 13.5142 23.1533 13.47 23.128 13.4258C24.1548 15.1491 24.7331 17.1025 24.8101 19.1071Z" fill="url(#paint6_linear_1270_370)"/>
<path d="M30.8457 23.7689L30.8234 23.8683C30.8095 23.9264 30.795 23.9846 30.7801 24.0422C30.7712 24.079 30.7617 24.1168 30.7518 24.154C30.7453 24.1779 30.7394 24.2037 30.7324 24.2271C30.718 24.2812 30.7026 24.3344 30.6877 24.3886C30.6728 24.4427 30.6524 24.5103 30.634 24.5714C30.6157 24.6326 30.5973 24.6917 30.5779 24.7513C30.5782 24.7519 30.5783 24.7525 30.5783 24.7531C30.5783 24.7537 30.5782 24.7543 30.5779 24.7548C30.562 24.8045 30.5461 24.8542 30.5282 24.9039C30.5103 24.9536 30.4974 24.9958 30.4815 25.0415C30.4656 25.0872 30.4547 25.1176 30.4412 25.1553C30.4209 25.2125 30.4005 25.2691 30.3791 25.3253C30.3667 25.3591 30.3543 25.3924 30.3414 25.4247C30.3284 25.457 30.3215 25.4743 30.311 25.5012C30.2922 25.5509 30.2723 25.6006 30.2519 25.6503C30.2315 25.6999 30.2107 25.7496 30.1898 25.7993C30.1818 25.8172 30.1744 25.8356 30.1669 25.853C30.152 25.8878 30.1366 25.9231 30.1212 25.9578C30.1058 25.9926 30.0939 26.0205 30.079 26.0518C30.0705 26.0721 30.0616 26.091 30.0526 26.1109C30.0343 26.1526 30.0149 26.1934 29.9955 26.2341C29.9871 26.2525 29.9786 26.2704 29.9697 26.2878C29.9523 26.3256 29.9344 26.3628 29.9155 26.4001C29.9036 26.4259 29.8911 26.4498 29.8782 26.4766C29.8653 26.5035 29.8504 26.5333 29.8355 26.5616C29.8206 26.5899 29.8062 26.6192 29.7908 26.6486C29.7724 26.6853 29.7525 26.7221 29.7331 26.7589C29.7267 26.7718 29.7192 26.7847 29.7123 26.7981L29.6526 26.909C29.6347 26.9422 29.6159 26.975 29.5975 27.0083C29.5716 27.055 29.5478 27.1018 29.5185 27.148L29.4628 27.2434L29.4131 27.3303C29.3907 27.3676 29.3679 27.4054 29.344 27.4431C29.3391 27.4516 29.3331 27.4605 29.3276 27.469C29.3048 27.5067 29.2814 27.544 29.2576 27.5803C29.2417 27.6071 29.2243 27.633 29.2079 27.6593L29.1433 27.7537C29.1319 27.7731 29.1194 27.7915 29.1065 27.8104C29.0757 27.8556 29.0449 27.9018 29.0141 27.9465L29.0076 27.9565L28.9187 28.0832L28.8819 28.1329C28.8488 28.1796 28.8156 28.2263 28.7825 28.273L28.6961 28.3853C28.6752 28.4136 28.6538 28.4415 28.6315 28.4693C28.6273 28.4753 28.6228 28.4811 28.618 28.4867C28.5842 28.5309 28.55 28.5741 28.5152 28.6174C28.4804 28.6606 28.4506 28.6984 28.4158 28.7386C28.3745 28.7883 28.3318 28.838 28.2891 28.8907C28.2533 28.9329 28.217 28.9751 28.1808 29.0169C28.1708 29.0288 28.1599 29.0407 28.1489 29.0527C28.1157 29.0914 28.0819 29.1292 28.0496 29.167L28.0252 29.1943C27.985 29.2385 27.9442 29.2827 27.9035 29.326C27.899 29.3304 27.8955 29.3349 27.891 29.3389C27.8568 29.3757 27.8225 29.4119 27.7877 29.4482C27.7753 29.4616 27.7623 29.4745 27.7494 29.488C27.7181 29.5198 27.6868 29.5526 27.655 29.5844L27.6053 29.6341C27.5611 29.6783 27.5164 29.7215 27.4716 29.7652C27.4269 29.809 27.3723 29.8577 27.3256 29.9029C27.2788 29.9481 27.2262 29.9943 27.1765 30.039C27.1447 30.0684 27.1119 30.0982 27.0771 30.127L27.0065 30.1886C26.9618 30.2284 26.9161 30.2676 26.8694 30.3059C26.8227 30.3442 26.766 30.3929 26.7133 30.4351C26.6686 30.4729 26.6224 30.5086 26.5767 30.5454C26.5136 30.5951 26.4495 30.6448 26.3849 30.6945C26.2959 30.7621 26.206 30.8281 26.1146 30.8932C25.9903 30.982 25.8638 31.0692 25.7349 31.1546L25.7285 31.1586L25.7225 31.1631H25.72L25.6976 31.1775C25.6927 31.1815 25.6872 31.1844 25.6812 31.1884C25.6776 31.1912 25.6738 31.1937 25.6698 31.1959L25.5704 31.2585C25.5158 31.2928 25.4611 31.3271 25.406 31.3608C25.2996 31.4271 25.1926 31.4912 25.0849 31.5532C24.91 31.6555 24.7343 31.7549 24.5577 31.8513L24.5413 31.8603C24.4807 31.893 24.4206 31.9249 24.3599 31.9562L24.3495 31.9616C24.3058 31.9845 24.2625 32.0073 24.2188 32.0287C24.1607 32.0585 24.1025 32.0878 24.0444 32.1162C23.8698 32.2023 23.6937 32.2851 23.5162 32.3646C23.4575 32.3915 23.3979 32.4178 23.3388 32.4436C22.8021 32.6786 22.2534 32.8851 21.695 33.0623C21.1338 33.2407 20.5636 33.3888 19.9866 33.506C19.8683 33.5304 19.7485 33.5557 19.6293 33.5751C19.2317 33.6472 18.8342 33.7038 18.4367 33.7466C17.0753 33.8902 15.7015 33.866 14.346 33.6745H14.3291L14.1637 33.6502L14.1045 33.6407L13.9609 33.6179L13.7656 33.5841C13.5702 33.5509 13.3746 33.5127 13.1788 33.4693C13.3353 33.5011 13.4908 33.5299 13.6464 33.5552C13.7577 33.5741 13.868 33.5905 13.9788 33.6049C14.0588 33.6159 14.1393 33.6258 14.2193 33.6347C14.2775 33.6417 14.3356 33.6482 14.3937 33.6536C14.4613 33.6611 14.5289 33.667 14.596 33.673C14.6631 33.679 14.7157 33.683 14.7754 33.6869L14.8683 33.6929L14.9995 33.7003C15.0666 33.7038 15.1336 33.7068 15.2012 33.7088C15.2688 33.7108 15.3349 33.7133 15.4 33.7143C15.4651 33.7153 15.5242 33.7143 15.5868 33.7143H15.6554H15.7896C15.8085 33.7143 15.8268 33.7143 15.8452 33.7143C15.8949 33.7143 15.9446 33.7143 15.9943 33.7103C16.0001 33.711 16.0059 33.711 16.0117 33.7103C16.0713 33.7103 16.1315 33.7063 16.1916 33.7033H16.2274C16.2771 33.7033 16.3292 33.6979 16.3804 33.6944L16.4301 33.6914C16.4858 33.6879 16.5409 33.6834 16.5961 33.679C16.6622 33.6735 16.7278 33.6675 16.7948 33.6606C16.8445 33.6556 16.8977 33.6507 16.9494 33.6442C17.0011 33.6377 17.0597 33.6323 17.1149 33.6248C17.1222 33.6243 17.1295 33.6233 17.1367 33.6218C17.1715 33.6184 17.2068 33.6129 17.2416 33.6079C17.2883 33.602 17.3355 33.595 17.3827 33.588C17.4398 33.5796 17.4965 33.5706 17.5536 33.5612L17.6158 33.5513L17.7673 33.5244H17.7792C17.8334 33.515 17.8876 33.5041 17.9407 33.4936C17.9631 33.4897 17.9855 33.4852 18.0068 33.4802C18.0431 33.4733 18.0799 33.4658 18.1162 33.4574C18.1524 33.4489 18.1773 33.4449 18.2076 33.4375C18.2503 33.4285 18.2926 33.4186 18.3358 33.4087L18.3661 33.4012C18.4088 33.3918 18.4521 33.3808 18.4943 33.3709L18.5937 33.346L18.701 33.3177L18.8556 33.2755L18.9639 33.2447C19.0041 33.2332 19.0439 33.2213 19.0842 33.2089L19.1274 33.196C19.1666 33.184 19.2064 33.1716 19.2457 33.1587L19.3386 33.1289C19.3694 33.1189 19.3992 33.1095 19.429 33.0986C19.4588 33.0876 19.4832 33.0807 19.5095 33.0712C19.5493 33.0588 19.588 33.0449 19.6273 33.0305L19.6829 33.0106C19.7262 32.9957 19.7684 32.9803 19.8111 32.9639C19.8315 32.9565 19.8514 32.949 19.8713 32.9406C19.9036 32.9291 19.9359 32.9167 19.9677 32.9038C19.9995 32.8909 20.0387 32.8765 20.074 32.862L20.1282 32.8402C20.1779 32.8203 20.2276 32.7999 20.2773 32.7786C20.3269 32.7572 20.3766 32.7368 20.4263 32.7154L20.5019 32.6822C20.5342 32.6682 20.567 32.6533 20.6012 32.6379C20.6559 32.6134 20.7106 32.5881 20.7652 32.5619C20.8015 32.5455 20.8378 32.5281 20.8736 32.5122C20.9173 32.4913 20.961 32.4705 21.0042 32.4481C21.0475 32.4257 21.0977 32.4014 21.1439 32.3775H21.1469C21.2025 32.3487 21.2587 32.3194 21.3138 32.2896C21.369 32.2598 21.4256 32.2295 21.4813 32.1982L21.6269 32.1157L21.692 32.0774C21.7253 32.0585 21.7586 32.0386 21.7914 32.0188C21.8411 31.989 21.8937 31.9576 21.9444 31.9263C21.9737 31.9085 22.0026 31.8906 22.0309 31.8722C22.0592 31.8538 22.099 31.8294 22.1327 31.8076L22.1397 31.8031C22.1894 31.7718 22.2391 31.74 22.2863 31.7077C22.3335 31.6754 22.3738 31.6491 22.417 31.6192L22.5626 31.5199C22.5685 31.5154 22.5755 31.5114 22.581 31.5064C22.6123 31.4846 22.6436 31.4627 22.6739 31.4404C22.7042 31.418 22.731 31.3991 22.7594 31.3782L22.7778 31.3648L22.9164 31.261C23.1649 31.0721 23.4057 30.8734 23.6389 30.6647C23.6717 30.6353 23.7045 30.6065 23.7383 30.5767C23.9162 30.416 24.0886 30.2504 24.2556 30.0798C24.3301 30.0043 24.4033 29.9274 24.4752 29.8492C25.8942 28.3145 26.8901 26.4374 27.3654 24.4019C27.8406 22.3664 27.7788 20.2424 27.1862 18.2379C26.5935 16.2335 25.4902 14.4174 23.9845 12.9677C22.4787 11.5179 20.6221 10.4843 18.5967 9.96798L18.5042 9.94413C18.4362 9.92724 18.3686 9.91084 18.3 9.89444C18.2314 9.87804 18.1768 9.86761 18.1152 9.85518L18.0575 9.84425L17.9835 9.83083C17.905 9.81642 17.8255 9.804 17.7459 9.79208L17.6823 9.78313L17.6148 9.76524L17.5268 9.75431L17.4393 9.74487C17.2326 9.723 17.0271 9.70992 16.8227 9.70561C16.8221 9.70584 16.8215 9.70596 16.8209 9.70596C16.8203 9.70596 16.8197 9.70584 16.8192 9.70561C16.7611 9.70561 16.7039 9.70561 16.6458 9.70561H16.5573C16.4982 9.70561 16.4391 9.70561 16.3799 9.70959C16.3506 9.70959 16.3208 9.71257 16.2915 9.71356C16.2318 9.71654 16.1727 9.72002 16.1141 9.72449L16.0256 9.73145C15.9958 9.73394 15.966 9.73642 15.9367 9.7399C15.8775 9.74536 15.8189 9.75182 15.7598 9.75928C15.7304 9.76276 15.7011 9.76623 15.6713 9.77071L15.6176 9.77766L15.559 9.78661L15.4701 9.80003L15.3821 9.81493C15.324 9.82537 15.2653 9.8363 15.2067 9.84823C15.1779 9.8532 15.149 9.85916 15.1197 9.86612C14.8897 9.91581 14.6596 9.97444 14.4325 10.0465C14.2075 10.1165 13.9863 10.198 13.7696 10.2905C13.7423 10.3014 13.7149 10.3128 13.6881 10.3253C13.6071 10.3601 13.5271 10.3968 13.4471 10.4356C13.4208 10.4475 13.3944 10.4604 13.3681 10.4738C13.3418 10.4873 13.3154 10.4997 13.2896 10.5131C13.2637 10.5265 13.2374 10.5399 13.2116 10.5534L13.1335 10.5946L13.056 10.6373C13.0118 10.6612 12.9671 10.687 12.9229 10.7124C14.7202 9.64577 16.7636 9.06421 18.8532 9.02463C20.9428 8.98505 23.0069 9.48881 24.8433 10.4866C26.6797 11.4844 28.2255 12.9419 29.3293 14.7166C30.4332 16.4913 31.0573 18.5222 31.1404 20.6105C31.1447 20.7162 31.1475 20.8224 31.1488 20.929C31.1518 21.1685 31.1475 21.4081 31.1359 21.6476C31.1359 21.6903 31.132 21.734 31.129 21.7783C31.1111 22.0897 31.0809 22.4001 31.0385 22.7095C31.0311 22.7671 31.0231 22.8243 31.0142 22.8809C31.0142 22.8889 31.0142 22.8963 31.0107 22.9038C31.0057 22.9381 31.0003 22.9733 30.9943 23.0076C30.9883 23.0419 30.9819 23.0827 30.9754 23.1199C30.9754 23.1274 30.9754 23.1353 30.9719 23.1428C30.9615 23.2009 30.9511 23.2591 30.9401 23.3172C30.9292 23.3754 30.9203 23.4206 30.9103 23.4723C30.9004 23.5239 30.8865 23.5861 30.8741 23.6432V23.6511C30.8641 23.6909 30.8552 23.7287 30.8457 23.7689Z" fill="url(#paint7_linear_1270_370)"/>
<path d="M36.2034 33.8385C38.2999 33.8385 39.9994 32.139 39.9994 30.0425C39.9994 27.9461 38.2999 26.2466 36.2034 26.2466C34.107 26.2466 32.4075 27.9461 32.4075 30.0425C32.4075 32.139 34.107 33.8385 36.2034 33.8385Z" fill="url(#paint8_linear_1270_370)"/>
</g>
<path d="M51.502 32.36V24.422H51.799C51.511 25.43 50.944 26.24 50.098 26.852C49.252 27.446 48.235 27.743 47.047 27.743C45.877 27.743 44.851 27.464 43.969 26.906C43.105 26.348 42.43 25.565 41.944 24.557C41.476 23.531 41.242 22.325 41.242 20.939C41.242 19.535 41.476 18.329 41.944 17.321C42.43 16.295 43.105 15.512 43.969 14.972C44.851 14.414 45.877 14.135 47.047 14.135C48.235 14.135 49.252 14.441 50.098 15.053C50.962 15.647 51.538 16.457 51.826 17.483H51.556V14.378H53.689V32.36H51.502ZM47.506 25.988C48.748 25.988 49.729 25.556 50.449 24.692C51.187 23.81 51.556 22.559 51.556 20.939C51.556 19.301 51.187 18.05 50.449 17.186C49.729 16.322 48.748 15.89 47.506 15.89C46.282 15.89 45.301 16.322 44.563 17.186C43.825 18.05 43.456 19.301 43.456 20.939C43.456 22.559 43.825 23.81 44.563 24.692C45.301 25.556 46.282 25.988 47.506 25.988ZM58.2902 27.5V8.465H65.9042C67.8482 8.465 69.3602 8.897 70.4402 9.761C71.5202 10.625 72.0602 11.849 72.0602 13.433C72.0602 14.621 71.7092 15.611 71.0072 16.403C70.3232 17.195 69.3872 17.717 68.1992 17.969V17.591C69.0992 17.699 69.8732 17.96 70.5212 18.374C71.1692 18.77 71.6642 19.301 72.0062 19.967C72.3482 20.615 72.5192 21.38 72.5192 22.262C72.5192 23.396 72.2672 24.359 71.7632 25.151C71.2772 25.925 70.5662 26.51 69.6302 26.906C68.6942 27.302 67.5602 27.5 66.2282 27.5H58.2902ZM60.4502 25.718H66.0122C66.5882 25.718 67.1012 25.673 67.5512 25.583C68.0192 25.493 68.4242 25.358 68.7662 25.178C69.1082 24.98 69.3962 24.746 69.6302 24.476C69.8642 24.206 70.0352 23.882 70.1432 23.504C70.2692 23.126 70.3322 22.703 70.3322 22.235C70.3322 21.749 70.2692 21.326 70.1432 20.966C70.0352 20.588 69.8642 20.264 69.6302 19.994C69.3962 19.706 69.1082 19.472 68.7662 19.292C68.4242 19.112 68.0192 18.977 67.5512 18.887C67.1012 18.797 66.5882 18.752 66.0122 18.752H60.4502V25.718ZM60.4502 16.97H65.5802C66.9842 16.97 68.0462 16.682 68.7662 16.106C69.5042 15.53 69.8732 14.702 69.8732 13.622C69.8732 12.506 69.5042 11.669 68.7662 11.111C68.0462 10.535 66.9842 10.247 65.5802 10.247H60.4502V16.97ZM76.4393 27.5V14.378H78.5723V17.483H78.3023C78.6083 16.421 79.1393 15.62 79.8953 15.08C80.6513 14.522 81.6503 14.198 82.8923 14.108L83.6753 14.027L83.8373 15.917L82.4603 16.079C81.2363 16.187 80.2913 16.583 79.6253 17.267C78.9773 17.933 78.6533 18.851 78.6533 20.021V27.5H76.4393ZM90.3152 27.743C89.4152 27.743 88.6052 27.572 87.8852 27.23C87.1832 26.87 86.6252 26.384 86.2112 25.772C85.7972 25.16 85.5902 24.476 85.5902 23.72C85.5902 22.748 85.8332 21.983 86.3192 21.425C86.8232 20.867 87.6422 20.471 88.7762 20.237C89.9282 20.003 91.4942 19.886 93.4742 19.886H94.6892V21.317H93.5012C92.4032 21.317 91.4852 21.353 90.7472 21.425C90.0092 21.497 89.4242 21.623 88.9922 21.803C88.5602 21.983 88.2542 22.217 88.0742 22.505C87.8942 22.793 87.8042 23.153 87.8042 23.585C87.8042 24.323 88.0562 24.926 88.5602 25.394C89.0822 25.862 89.7842 26.096 90.6662 26.096C91.3862 26.096 92.0162 25.925 92.5562 25.583C93.1142 25.241 93.5462 24.773 93.8522 24.179C94.1762 23.585 94.3382 22.901 94.3382 22.127V19.049C94.3382 17.933 94.1132 17.132 93.6632 16.646C93.2132 16.142 92.4752 15.89 91.4492 15.89C90.6572 15.89 89.8922 16.007 89.1542 16.241C88.4162 16.457 87.6602 16.817 86.8862 17.321L86.1302 15.728C86.5982 15.404 87.1292 15.125 87.7232 14.891C88.3172 14.639 88.9382 14.45 89.5862 14.324C90.2342 14.198 90.8552 14.135 91.4492 14.135C92.5832 14.135 93.5192 14.324 94.2572 14.702C94.9952 15.062 95.5442 15.62 95.9042 16.376C96.2642 17.114 96.4442 18.068 96.4442 19.238V27.5H94.3922V24.449H94.6352C94.4912 25.133 94.2122 25.718 93.7982 26.204C93.4022 26.69 92.9072 27.068 92.3132 27.338C91.7192 27.608 91.0532 27.743 90.3152 27.743ZM100.432 11.111V8.654H103.132V11.111H100.432ZM100.702 27.5V14.378H102.889V27.5H100.702ZM112.172 27.743C111.002 27.743 109.976 27.464 109.094 26.906C108.23 26.348 107.555 25.565 107.069 24.557C106.601 23.531 106.367 22.325 106.367 20.939C106.367 19.535 106.601 18.329 107.069 17.321C107.555 16.295 108.23 15.512 109.094 14.972C109.976 14.414 111.002 14.135 112.172 14.135C113.36 14.135 114.377 14.432 115.223 15.026C116.069 15.62 116.636 16.421 116.924 17.429H116.627V8.465H118.814V27.5H116.681V24.368H116.951C116.663 25.394 116.087 26.213 115.223 26.825C114.377 27.437 113.36 27.743 112.172 27.743ZM112.631 25.988C113.873 25.988 114.854 25.556 115.574 24.692C116.312 23.81 116.681 22.559 116.681 20.939C116.681 19.301 116.312 18.05 115.574 17.186C114.854 16.322 113.873 15.89 112.631 15.89C111.407 15.89 110.426 16.322 109.688 17.186C108.95 18.05 108.581 19.301 108.581 20.939C108.581 22.559 108.95 23.81 109.688 24.692C110.426 25.556 111.407 25.988 112.631 25.988Z" fill="white"/>
<defs>
<linearGradient id="paint0_linear_1270_370" x1="9.27362" y1="10.1766" x2="34.0587" y2="16.0675" gradientUnits="userSpaceOnUse">
<stop stop-color="#15021E"/>
<stop offset="0.32" stop-color="#8011C9"/>
<stop offset="0.39" stop-color="#9A13F2"/>
<stop offset="0.53" stop-color="#B110CC"/>
<stop offset="0.75" stop-color="#CE0D9B"/>
<stop offset="0.91" stop-color="#E10B7C"/>
<stop offset="1" stop-color="#E80A70"/>
</linearGradient>
<linearGradient id="paint1_linear_1270_370" x1="9.47408" y1="15.1699" x2="32.9505" y2="20.7498" gradientUnits="userSpaceOnUse">
<stop stop-color="#15021E"/>
<stop offset="0.32" stop-color="#8011C9"/>
<stop offset="0.39" stop-color="#9A13F2"/>
<stop offset="0.53" stop-color="#B110CC"/>
<stop offset="0.75" stop-color="#CE0D9B"/>
<stop offset="0.91" stop-color="#E10B7C"/>
<stop offset="1" stop-color="#E80A70"/>
</linearGradient>
<linearGradient id="paint2_linear_1270_370" x1="0.392681" y1="13.5817" x2="23.8686" y2="19.1615" gradientUnits="userSpaceOnUse">
<stop stop-color="#15021E"/>
<stop offset="0.32" stop-color="#8011C9"/>
<stop offset="0.39" stop-color="#9A13F2"/>
<stop offset="0.53" stop-color="#B110CC"/>
<stop offset="0.75" stop-color="#CE0D9B"/>
<stop offset="0.91" stop-color="#E10B7C"/>
<stop offset="1" stop-color="#E80A70"/>
</linearGradient>
<linearGradient id="paint3_linear_1270_370" x1="4.41204" y1="18.9842" x2="27.3465" y2="24.4353" gradientUnits="userSpaceOnUse">
<stop stop-color="#15021E"/>
<stop offset="0.32" stop-color="#8011C9"/>
<stop offset="0.39" stop-color="#9A13F2"/>
<stop offset="0.53" stop-color="#B110CC"/>
<stop offset="0.75" stop-color="#CE0D9B"/>
<stop offset="0.91" stop-color="#E10B7C"/>
<stop offset="1" stop-color="#E80A70"/>
</linearGradient>
<linearGradient id="paint4_linear_1270_370" x1="5.99516" y1="9.90125" x2="28.9398" y2="15.3547" gradientUnits="userSpaceOnUse">
<stop stop-color="#15021E"/>
<stop offset="0.32" stop-color="#8011C9"/>
<stop offset="0.39" stop-color="#9A13F2"/>
<stop offset="0.53" stop-color="#B110CC"/>
<stop offset="0.75" stop-color="#CE0D9B"/>
<stop offset="0.91" stop-color="#E10B7C"/>
<stop offset="1" stop-color="#E80A70"/>
</linearGradient>
<linearGradient id="paint5_linear_1270_370" x1="2.67394" y1="9.80748" x2="22.5757" y2="14.5377" gradientUnits="userSpaceOnUse">
<stop stop-color="#15021E"/>
<stop offset="0.32" stop-color="#8011C9"/>
<stop offset="0.39" stop-color="#9A13F2"/>
<stop offset="0.53" stop-color="#B110CC"/>
<stop offset="0.75" stop-color="#CE0D9B"/>
<stop offset="0.91" stop-color="#E10B7C"/>
<stop offset="1" stop-color="#E80A70"/>
</linearGradient>
<linearGradient id="paint6_linear_1270_370" x1="-0.717394" y1="18.2689" x2="24.0677" y2="24.1598" gradientUnits="userSpaceOnUse">
<stop stop-color="#15021E"/>
<stop offset="0.32" stop-color="#8011C9"/>
<stop offset="0.39" stop-color="#9A13F2"/>
<stop offset="0.53" stop-color="#B110CC"/>
<stop offset="0.75" stop-color="#CE0D9B"/>
<stop offset="0.91" stop-color="#E10B7C"/>
<stop offset="1" stop-color="#E80A70"/>
</linearGradient>
<linearGradient id="paint7_linear_1270_370" x1="10.7658" y1="19.7987" x2="30.668" y2="24.529" gradientUnits="userSpaceOnUse">
<stop stop-color="#15021E"/>
<stop offset="0.32" stop-color="#8011C9"/>
<stop offset="0.39" stop-color="#9A13F2"/>
<stop offset="0.53" stop-color="#B110CC"/>
<stop offset="0.75" stop-color="#CE0D9B"/>
<stop offset="0.91" stop-color="#E10B7C"/>
<stop offset="1" stop-color="#E80A70"/>
</linearGradient>
<linearGradient id="paint8_linear_1270_370" x1="38.9636" y1="32.6498" x2="33.444" y2="27.4347" gradientUnits="userSpaceOnUse">
<stop stop-color="#9A13F2"/>
<stop offset="0.47" stop-color="#C30EAE"/>
<stop offset="0.82" stop-color="#DE0B81"/>
<stop offset="1" stop-color="#E80A70"/>
</linearGradient>
<clipPath id="clip0_1270_370">
<rect width="40" height="33.3388" fill="white" transform="translate(0 0.5)"/>
</clipPath>
</defs>
</svg>
