<svg xmlns="http://www.w3.org/2000/svg" width="121" height="38" fill="none" viewBox="0 0 121 38"><g clip-path="url(#a)"><path fill="url(#b)" d="M33.08 20.072q-.051.294-.114.587a11 11 0 0 0 .166-1.04q.011-.089.019-.174l.019-.203.014-.18c0-.03.005-.062.006-.093l.008-.13.008-.202.006-.2v-.445q.001-.075-.004-.149v-.017q-.002-.09-.008-.18v-.036l-.012-.202-.013-.166q-.007-.099-.018-.199l-.016-.155c-.006-.05-.012-.11-.02-.165q0-.012-.002-.022l-.014-.105-.02-.14-.027-.172-.01-.062-.027-.152v-.012l-.045-.227q-.01-.055-.022-.11l-.02-.091-.03-.128q-.001-.015-.007-.03l-.03-.128-.025-.1-.028-.107-.043-.155-.03-.109-.036-.12-.013-.043-.037-.118-.03-.093-.03-.09-.027-.081a3 3 0 0 0-.061-.174l-.047-.128-.023-.06-.037-.096-.042-.106-.021-.054-.063-.15q-.03-.075-.063-.149l-.032-.075-.045-.099-.076-.164-.05-.109c-.016-.036-.042-.087-.065-.13l-.07-.14v-.003l-.088-.167-.091-.167c-.032-.056-.055-.1-.082-.146l-.039-.065-.058-.1-.093-.153-.055-.087c-.018-.028-.042-.067-.064-.099l-.005-.007q-.046-.076-.095-.146l-.088-.132-.1-.145-.014-.019-.066-.093-.062-.085-.013-.018-.104-.139a11 11 0 0 0-.684-.82 12 12 0 0 0-.728-.736A12.066 12.066 0 0 0 9.431 15.34l-.004.016-.041.171-.004.017-.034.16a7 7 0 0 0-.073.43v.002l-.011.085a7.4 7.4 0 0 0-.026 1.678l.009.089.01.088.009.071a6 6 0 0 0 .063.394c.01.054.022.117.035.175q.008.043.019.087.019.087.041.173a7.4 7.4 0 0 0 .547 1.491l.04.08.04.077c.014.029.027.05.041.078l.043.077q.037.068.075.134A12.069 12.069 0 0 1 20.493 2.688h.004q.164 0 .327.003a7 7 0 0 1 .603.028 11 11 0 0 1 .969.108q.092.014.184.029h.007l.135.024.066.012q.085.015.171.034c.057.011.125.024.187.038l.15.034q.121.027.244.059l.154.04.01.002.182.05.183.053.18.056h.004l.172.057.014.004.149.05.035.013.167.06.153.058.047.018q.079.03.156.063.075.03.149.062.027.01.053.023.06.024.116.05l.059.025.114.053.064.028.114.055.053.026q.069.032.136.067l.023.011q.07.037.14.073.024.01.05.024l.105.056.063.034q.073.039.14.078l.142.082.05.029a7 7 0 0 1 .337.205l.118.075.041.028.106.07c.034.023.08.053.12.082l.012.008.127.088.05.037.139.1a5 5 0 0 1 .198.15l.018.013.132.105c.044.035.08.063.118.095q.077.063.152.127l.124.106.04.035q.045.037.089.079l.058.052q.063.056.124.114l.015.014.108.104.04.038.1.105q.093.092.183.185l.135.143.136.15q.045.045.088.099.03.033.061.07l.118.136c.039.047.087.104.129.157l.11.137q.075.093.149.19.102.134.199.272.138.192.269.392v.002l.02.031.018.027.018.028.04.062a19 19 0 0 1 .294.486q.105.176.2.351.001.005.005.012l.1.181.093.177q.087.167.17.334.038.08.078.16c.028.054.055.118.083.177q.042.087.081.177l.08.178.074.174.004.008.074.177a17 17 0 0 1 .684 2.037q.024.095.05.189l.089.37v.012l.043.192q.086.397.152.802c.274 1.665.293 3.363.056 5.034q0 .008-.003.017l-.023.166-.01.059q-.01.074-.023.143c-.003.061-.015.127-.026.191"/><path fill="url(#c)" d="M32.946 20.75q-.062.281-.133.56l-.02.078a17 17 0 0 1-.264.903l-.018.057-.053.16q-.002.007-.005.015a16.7 16.7 0 0 1-2.22 4.338l-.084.116q-.09.124-.182.245l-.084.11-.054.07-.067.085-.06.075-.062.079q-.062.075-.124.152a33 33 0 0 1-.384.447l-.131.146a17 17 0 0 1-1.398 1.364q-.074.062-.145.124l-.007.006-.146.122-.15.123-.152.122q-.074.06-.153.12c-.055.04-.094.072-.142.108l-.082.06-.06.044-.027.022-.133.095-.025.019-.018.013-.141.099-.15.103a11 11 0 0 1-.332.221 14 14 0 0 0 .65-.46l.192-.149q.07-.054.136-.11l.156-.13.138-.116.07-.062.099-.088.15-.136q.075-.069.145-.137c.047-.047.09-.087.134-.132l.05-.05.094-.096.038-.04.104-.109.012-.013.122-.131.024-.028q.051-.055.1-.114l.031-.036a11 11 0 0 0 .235-.278l.1-.121.116-.148.065-.084.086-.114.099-.14.037-.05.089-.127.006-.01.093-.136.036-.056.062-.093.05-.079c.023-.036.05-.073.07-.111l.016-.026.07-.113.049-.087.056-.095.079-.14q.027-.048.055-.1l.06-.11.02-.039q.03-.055.058-.11l.045-.087.043-.085.037-.077a2 2 0 0 0 .08-.165q.03-.061.057-.124l.027-.059q.022-.046.042-.094l.046-.105.022-.053.063-.15a6 6 0 0 0 .089-.225l.038-.1a9 9 0 0 0 .102-.283l.047-.138.05-.152.056-.18.053-.183.045-.162.02-.073.028-.111.065-.274.027-.117v-.008l.036-.171.03-.155.031-.175q.001-.01.004-.023l.019-.112.016-.104q-.001-.01.004-.023.013-.085.024-.171.065-.465.09-.931l.008-.131a11 11 0 0 0 .004-1.037 12.065 12.065 0 0 0-18.215-9.9l-.08.05-.09.055-.089.055a9 9 0 0 0-.28.186l-.07.05-.072.05c-.021.015-.05.034-.07.052l-.07.053a7.4 7.4 0 0 0-1.371 1.378l-.1.132q-.069.095-.134.191l-.04.06-.05.074-.05.075a7.4 7.4 0 0 0-.758 1.596v.003q-.03.082-.054.166-.039.124-.074.249l-.024.088a12.07 12.07 0 0 1 20.117-5.684 10 10 0 0 1 .585.613 12 12 0 0 1 .776.965q.032.046.066.093l.014.02.1.144.088.132.095.146.005.007.064.1a6.79 6.79 0 0 1 .206.34l.038.064.082.146c.027.049.062.111.091.167q.045.084.088.167v.003q.038.07.071.14c.02.046.044.086.065.13.02.044.035.073.05.109q.037.082.076.164.023.049.044.1l.033.075q.033.075.063.149l.062.149.022.054.042.106.036.096.023.06.067.184.041.118q.015.04.028.08l.03.09.03.094.036.118q.008.02.013.043l.036.12c.011.04.021.073.03.11l.044.154.028.107.024.1.031.128c0 .01.005.02.007.03l.029.128.02.092.023.108q.008.033.013.067l.031.161v.012q.015.075.027.152l.01.062a9 9 0 0 1 .047.312l.014.105q0 .01.003.022.012.082.02.165l.016.155a8 8 0 0 1 .033.414l.01.153v.036q.005.09.007.18v.017q.001.075.004.15v.445c0 .062-.003.134-.005.199l-.009.201q-.002.066-.008.132 0 .046-.006.092l-.014.18-.018.203-.02.174a15 15 0 0 1-.08.572q-.037.235-.086.468-.002.015-.006.03l-.01.05z"/><path fill="url(#d)" d="m23.866 19.157.023-.088a12.07 12.07 0 0 1-20.164 5.636l-.004-.004a11 11 0 0 1-.523-.55l-.113-.129a13 13 0 0 1-.609-.761l-.11-.15-.003-.005-.08-.112-.037-.056q-.05-.074-.1-.144c-.034-.049-.07-.107-.104-.16a8 8 0 0 1-.213-.344l-.081-.137-.006-.01a11 11 0 0 1-.184-.33q-.045-.085-.088-.168v-.003l-.081-.161-.007-.013q-.038-.074-.07-.144l-.016-.034-.076-.161c-.026-.054-.045-.1-.067-.15l-.02-.045-.066-.155-.062-.149-.022-.054-.046-.117-.023-.06q-.023-.058-.045-.118l-.024-.066a4 4 0 0 1-.061-.174l-.05-.143-.007-.025-.05-.149-.016-.05-.035-.113-.02-.069-.044-.155-.043-.158-.015-.054-.035-.142a13 13 0 0 1-.122-.552c-.01-.05-.019-.095-.027-.143q0-.008-.003-.014l-.027-.152-.01-.063-.027-.17-.02-.142-.014-.105-.003-.021-.02-.168-.016-.15-.017-.198-.013-.162q0-.027-.003-.053l-.007-.12q-.001-.036-.004-.077l-.007-.168v-.02q-.001-.075-.004-.149v-.45q.001-.097.005-.196c.002-.065.005-.135.009-.202q.001-.065.008-.131.001-.046.005-.093l.014-.18c.006-.06.012-.135.02-.202l.018-.175a10 10 0 0 1 .08-.572 12 12 0 0 1 .096-.513l.01-.045a17 17 0 0 1 .315-1.214l.058-.189q.02-.065.042-.13l.021-.07.056-.17A16.7 16.7 0 0 1 2.66 8.138l.107-.164.11-.164.112-.162.038-.054.072-.103a.02.02 0 0 0 .007-.012 20 20 0 0 1 .353-.476l.05-.064.049-.066.016-.02.004-.006.055-.069q.522-.654 1.106-1.25l.138-.14a16 16 0 0 1 1.002-.922h.003c.003 0 0-.003.004-.004q.22-.186.447-.367l.153-.12.142-.107.013-.01.116-.087.012-.008.028-.021.133-.096.163-.116.17-.118.01-.007q.168-.113.337-.223a12 12 0 0 0-1.147.857c-.05.044-.092.077-.137.117l-.07.061a8 8 0 0 0-.248.224q-.074.069-.143.135-.094.091-.185.182l-.095.097-.038.04-.103.109-.015.014-.114.124-.05.059a3 3 0 0 0-.114.129q-.054.06-.106.123a6 6 0 0 0-.222.27l-.105.133-.013.017-.065.084-.086.114-.1.14-.036.05-.089.127q-.002.006-.008.012l-.081.12c-.027.04-.05.07-.07.106l-.028.041-.073.116q-.067.104-.13.212-.038.062-.076.126l-.028.05-.082.142-.078.14-.035.063-.055.105q-.013.023-.025.05-.037.07-.072.14l-.012.023-.066.135-.027.054-.054.114-.029.064a2 2 0 0 0-.05.114q-.014.03-.025.059a2 2 0 0 0-.05.116l-.023.053-.062.15-.063.155-.018.047a9 9 0 0 0-.118.32q-.007.019-.013.036l-.056.165q-.03.085-.057.172v.004q-.03.09-.056.18l-.054.183-.05.181-.002.01q-.02.076-.04.155-.03.122-.058.245-.02.075-.034.149l-.039.186-.033.17-.013.067-.023.136v.007q-.016.09-.03.183l-.027.19q-.053.387-.08.78-.008.084-.011.17-.014.215-.017.433-.005.163-.003.326 0 .19.009.384a12.064 12.064 0 0 0 18.21 9.902l.081-.05.09-.055.089-.055a9 9 0 0 0 .28-.186l.07-.05.072-.05c.021-.015.05-.034.07-.052s.047-.035.07-.053a7.4 7.4 0 0 0 1.37-1.38c.036-.047.068-.088.1-.132q.07-.095.135-.191l.04-.06.05-.074.05-.075a7.4 7.4 0 0 0 .814-1.759z"/><path fill="url(#e)" d="M27.525 19.75a12.1 12.1 0 0 1-3.276 10.318 9 9 0 0 1-.616.585q-.348.312-.723.597l-.139.104-.018.013-.085.062q-.046.031-.093.066l-.019.014-.145.099-.131.088c-.044.03-.1.064-.147.096l-.007.004-.102.065c-.034.02-.057.036-.086.054q-.074.047-.153.092l-.1.059-.064.038-.146.083-.168.091q-.083.046-.166.088h-.003l-.14.07-.13.065a1 1 0 0 1-.11.05 8 8 0 0 1-.262.12l-.076.033-.15.063-.148.062-.054.022-.107.041c-.035.014-.064.026-.096.037q-.03.013-.06.023l-.128.047-.056.02q-.059.022-.118.04-.04.016-.08.028l-.09.03-.094.03-.118.038-.043.012-.12.036-.109.031-.154.042-.108.029-.099.024q-.063.016-.128.03l-.03.008-.129.03-.091.019-.11.023q-.03.008-.066.013-.08.016-.161.031h-.012l-.152.027-.062.01-.17.027-.142.02-.105.014-.021.002q-.084.012-.166.02l-.155.016a8 8 0 0 1-.364.031l-.05.003q-.076.006-.153.009h-.036l-.197.007q-.075.001-.15.004h-.444c-.062 0-.134 0-.2-.006-.064-.005-.134-.005-.2-.008l-.132-.008-.093-.005-.18-.014c-.06-.006-.134-.012-.202-.02l-.174-.019a10 10 0 0 1-.573-.08 12 12 0 0 1-.468-.085h-.003l-.026-.006-.05-.01-.013-.003a16 16 0 0 1-1.213-.315l-.19-.058-.138-.044-.057-.018-.159-.053-.016-.005a16.7 16.7 0 0 1-4.676-2.468l-.288-.222a16.6 16.6 0 0 1-2.515-2.457l-.123-.15a19 19 0 0 1-.36-.46c-.038-.05-.077-.105-.115-.157q-.044-.059-.087-.119l-.007-.01a20 20 0 0 1-.459-.671 12.5 12.5 0 0 0 1.028 1.34q.043.052.088.1l.136.15q.069.075.138.145l.131.134.05.05.096.093.04.038q.054.054.109.104l.013.012a6 6 0 0 0 .273.246l.036.031.126.108c.043.036.1.086.153.128l.12.099.149.117q.04.033.084.064a5 5 0 0 0 .253.185l.05.037q.063.046.126.088l.01.007a4 4 0 0 0 .193.13l.093.06c.031.02.052.035.078.05.037.024.074.05.112.07l.026.017.113.069.086.05a6 6 0 0 0 .235.135l.1.055.11.06.04.021q.054.03.11.057l.087.045.085.043.076.037.112.055.054.025.123.058.06.026.094.042.104.045.054.023.149.062.149.06.076.03.1.038.17.062.114.04c.038.014.09.032.138.047.047.014.1.032.149.05h.003q.09.029.18.055.09.028.184.054l.161.044.073.02.112.029.173.042q.05.013.1.023l.118.026h.008a12 12 0 0 0 .326.066l.174.032.023.004.112.018.104.017.023.003q.085.014.171.024.464.065.932.091c.044 0 .087.005.13.007a11 11 0 0 0 1.037.005 12.065 12.065 0 0 0 9.91-18.204l-.049-.083-.054-.09-.056-.088q-.067-.106-.136-.207-.025-.038-.05-.072l-.05-.073c-.015-.022-.034-.05-.05-.07l-.052-.071-.053-.07a8 8 0 0 0-.222-.275 7.4 7.4 0 0 0-1.226-1.15l-.073-.053-.073-.052-.05-.034-.044-.03q-.038-.027-.074-.05l-.15-.1-.075-.047-.076-.046q-.073-.045-.153-.09l-.078-.043a3 3 0 0 0-.156-.084l-.078-.04q-.077-.038-.156-.077h-.003a7 7 0 0 0-.568-.243l-.083-.03-.083-.03-.057-.02-.06-.021q-.116-.038-.23-.072l-.072-.022-.057-.016-.09-.024a12.06 12.06 0 0 1 8.935 9.795z"/><path fill="url(#f)" d="M30.66 8.114a11 11 0 0 0-.468-.663 16 16 0 0 0-.388-.485l-.117-.137-.062-.07-.087-.099q-.067-.075-.137-.149l-.135-.143-.182-.185-.096-.094-.04-.038-.11-.104-.014-.014q-.061-.058-.124-.114l-.058-.052-.088-.079-.041-.035-.123-.106q-.075-.064-.152-.127l-.119-.096c-.04-.03-.088-.07-.132-.104l-.018-.014-.084-.064-.114-.086a3 3 0 0 0-.14-.1q-.026-.017-.05-.036l-.126-.089-.012-.007-.12-.082c-.04-.027-.07-.048-.106-.07l-.04-.028-.119-.075a12 12 0 0 0-.529-.316q-.07-.04-.14-.078l-.063-.034-.105-.056q-.023-.013-.05-.025-.07-.038-.14-.072l-.023-.012-.136-.066q-.026-.014-.053-.027l-.114-.054-.063-.029-.115-.052-.059-.026a2 2 0 0 0-.116-.05L25.3 3.65q-.075-.033-.15-.062-.074-.031-.155-.063l-.047-.018-.153-.058-.167-.06-.035-.013q-.075-.028-.15-.05l-.013-.005-.172-.056h-.004q-.09-.03-.18-.056l-.183-.054-.181-.05-.011-.002-.154-.04a8 8 0 0 0-.394-.092l-.187-.039c-.062-.011-.114-.024-.17-.034l-.067-.011q-.067-.013-.136-.024h-.006l-.184-.03q-.094-.015-.189-.026a11 11 0 0 0-1.383-.109 9 9 0 0 0-.327-.003h-.006A12.063 12.063 0 0 0 10.21 20.913l.05.081.055.09.055.089a9 9 0 0 0 .186.279l.05.072.05.071.052.07q.027.038.053.07a9 9 0 0 0 .223.275 7.4 7.4 0 0 0 1.227 1.15l.072.053.073.05.05.034.044.03q.038.027.075.05l.149.1.075.047.076.046q.074.045.153.09l.078.043q.077.043.156.084l.08.04c.05.027.103.05.155.078h.004q.277.133.568.242l.082.031.084.03.056.02.06.02q.116.038.23.073l.073.021.056.016.09.025A12.07 12.07 0 0 1 9.134 4.225l.004-.004a11.836 11.836 0 0 1 .679-.636q.298-.257.609-.497.074-.057.153-.114c.054-.038.1-.073.15-.11l.005-.003.112-.079.056-.038c.05-.033.095-.066.144-.1l.16-.104q.063-.042.129-.082a8 8 0 0 1 .36-.217l.165-.093a17 17 0 0 1 .334-.18h.003l.162-.081.012-.007c.05-.024.096-.05.144-.07l.035-.016.16-.076c.055-.026.1-.045.15-.067l.046-.02q.076-.034.154-.066l.15-.062.053-.022.118-.046.06-.023.117-.045.066-.024.119-.042.056-.02q.074-.023.143-.05l.025-.007.15-.05q.024-.008.049-.016l.113-.035.069-.02q.075-.023.155-.044.078-.022.157-.043l.055-.014A10 10 0 0 1 15.1.909l.136-.03.05-.01.124-.025c.041-.008.095-.019.143-.027l.014-.003.152-.027.062-.01a10 10 0 0 1 .607-.083l.152-.017a8 8 0 0 1 .36-.03q.027-.002.053-.003l.12-.008.077-.003.169-.007h.02c.05 0 .099-.004.149-.004h.449q.099.001.197.005l.201.008q.066.002.131.008l.093.006a7 7 0 0 1 .382.033q.087.009.175.02.12.012.24.029.166.023.332.05.234.037.468.086l.046.01.045.01a18 18 0 0 1 1.213.314l.19.058.138.044.057.018.159.053.016.006a16.7 16.7 0 0 1 5.271 2.937 16.7 16.7 0 0 1 2.456 2.52q.06.076.12.155l.105.136.104.14c.034.048.075.102.111.154l.008.01a20 20 0 0 1 .466.682"/><path fill="url(#g)" d="M20.28 23.703q.066-.036.133-.075A12.069 12.069 0 0 1 2.188 13.345v-.006q0-.164.003-.327.004-.216.017-.433.003-.085.01-.17a12 12 0 0 1 .108-.969q.014-.093.03-.184v-.006l.023-.136.013-.067.033-.17c.012-.057.025-.125.039-.187q.015-.075.034-.149a7 7 0 0 1 .098-.399l.002-.01.05-.182a8 8 0 0 1 .11-.363v-.003l.06-.186.053-.152.013-.035.06-.167.058-.153.018-.047q.03-.08.063-.156l.062-.15.023-.053.05-.116.025-.058q.027-.057.05-.115l.029-.064.054-.113.027-.054q.03-.068.066-.135l.012-.024c.023-.047.05-.094.072-.14l.025-.05.056-.105.034-.063q.038-.07.078-.14.041-.07.082-.142l.028-.05.075-.125.13-.212.076-.117.028-.042.07-.106.081-.12.008-.012.09-.126.036-.05.1-.14.085-.114.078-.101.105-.134.095-.118.127-.152.141-.163c.026-.03.05-.06.08-.089l.05-.058.113-.124.015-.015.103-.109.038-.04.095-.096q.091-.091.185-.182l.143-.135a14 14 0 0 1 .248-.224l.07-.061q.067-.06.138-.118c.046-.038.103-.087.156-.129l.136-.11a11 11 0 0 1 .462-.348q.193-.137.392-.27h.003l.04-.025.046-.03.063-.04q.165-.104.33-.204.077-.047.155-.09a17 17 0 0 1 .725-.402l.01-.005.17-.087.156-.078.155-.075.176-.084q.177-.082.355-.16a16.7 16.7 0 0 1 2.967-.98q.37-.083.742-.149.597-.108 1.195-.172a16.7 16.7 0 0 1 4.09.072h.018l.165.025.06.009.143.023.195.034q.293.052.587.114a9 9 0 0 0-.468-.085 8 8 0 0 0-.572-.08l-.175-.019a7 7 0 0 0-.381-.033c-.032 0-.063-.005-.094-.006l-.13-.008-.202-.008-.197-.006q-.13-.002-.26 0h-.189q-.075-.001-.15.004h-.02q-.084.001-.168.007l-.078.004q-.06.002-.119.008-.026 0-.053.003a9 9 0 0 0-.512.047c-.052.006-.112.012-.168.02l-.022.002-.105.014-.14.02-.172.027-.062.01-.152.027-.014.003-.143.027-.124.025-.05.01-.136.03a17 17 0 0 0-.384.093l-.055.014-.157.043-.155.044-.069.02a3 3 0 0 0-.163.051q-.075.022-.149.05l-.025.008c-.05.016-.095.031-.143.05l-.056.019q-.06.02-.119.042l-.065.024q-.06.022-.119.045l-.06.023a3 3 0 0 0-.17.068q-.075.03-.15.062l-.154.066-.046.02q-.075.032-.15.067l-.16.076-.034.016q-.073.033-.145.07l-.013.007-.161.081h-.003l-.167.088q-.084.045-.168.092l-.163.092-.01.006-.136.08a8 8 0 0 0-.344.214q-.082.051-.16.104c-.052.036-.097.065-.144.1l-.056.038-.113.08-.005.003-.149.109-.153.114a11 11 0 0 0-.737.61 12 12 0 0 0-.55.523l-.005.004q-.135.137-.265.278a12.064 12.064 0 0 0 5.883 19.875l.092.024.204.05c.069.016.123.026.185.039l.058.01.074.014q.118.021.237.039l.064.009.06.008.087.01.088.01a7 7 0 0 0 .62.04h.261q.09.001.178-.005.045-.001.088-.004l.178-.01.088-.008.09-.008q.087-.009.176-.02.045-.004.088-.011l.054-.007.059-.009.089-.013.088-.015a8 8 0 0 0 .95-.232 7 7 0 0 0 .744-.279q.12-.05.24-.11l.08-.038.078-.04.078-.04.078-.04z"/><path fill="url(#h)" d="M24.81 19.107a12.075 12.075 0 0 1-12.62 12.529q-.064-.001-.13-.007a12 12 0 0 1-1.103-.115l-.022-.003-.104-.017-.113-.018-.022-.004q-.089-.015-.175-.032l-.155-.03-.17-.035h-.01l-.117-.027-.1-.023-.173-.042-.112-.03-.073-.019-.161-.044-.183-.053-.184-.057q-.075-.023-.149-.05l-.138-.046-.113-.04-.17-.062-.1-.038-.077-.03q-.075-.03-.149-.06-.075-.03-.149-.062l-.054-.023-.104-.045-.094-.042-.06-.026-.123-.058-.053-.025-.113-.055-.076-.037-.085-.043-.087-.045-.11-.057-.04-.021-.11-.06-.1-.055q-.069-.037-.139-.08l-.096-.055-.086-.05-.112-.075-.027-.016-.11-.07-.08-.05-.092-.06-.057-.038-.136-.093-.01-.006-.126-.088-.05-.037-.14-.1-.113-.085q-.044-.031-.084-.065l-.018-.013-.131-.103c-.043-.035-.08-.065-.12-.1q-.076-.062-.153-.127l-.127-.108-.035-.032-.115-.099-.026-.024-.133-.122-.013-.012-.108-.104-.04-.038-.097-.094-.05-.05-.13-.133-.139-.146a12.6 12.6 0 0 1-1.25-1.59l-.009-.013v-.002l-.014-.022-.019-.028a15 15 0 0 1-.264-.429l-.067-.111-.025-.043-.004-.007-.004-.006-.096-.168a16.46 16.46 0 0 1-.187-.34c-.029-.053-.054-.099-.08-.152q-.006-.009-.01-.02l-.015-.027-.046-.087-.03-.058-.015-.032-.038-.07-.039-.076-.007-.015q-.037-.08-.078-.16c-.028-.053-.055-.117-.083-.176l-.081-.177-.124-.28-.031-.073v-.007l-.03-.073q-.1-.231-.188-.467l-.069-.183a17 17 0 0 1-.612-2.063q-.023-.096-.043-.192l-.039-.185v-.007l-.02-.105-.017-.088-.025-.136-.01-.052a24 24 0 0 1-.094-.587l-.027-.194q-.013-.098-.024-.196L.1 18.935a16.7 16.7 0 0 1 .072-4.09v-.018l.024-.161q.005-.038.012-.072l.021-.135.033-.195q.052-.293.116-.587a9 9 0 0 0-.087.468q-.028.165-.05.332a10 10 0 0 0-.068.617l-.014.18c0 .03-.005.062-.006.093l-.008.13-.008.203-.005.196v.45q-.001.075.004.149v.02q.001.084.006.168-.001.037.004.078.001.06.007.118-.001.027.004.054l.012.162.018.198.016.15.02.167.003.022.014.105a8 8 0 0 0 .047.312l.01.062.027.152q0 .008.003.015.012.073.027.143l.025.123.01.05.03.137.056.241.036.142.015.055a8 8 0 0 0 .107.381 3 3 0 0 0 .05.164q.024.075.05.149l.008.025q.024.071.05.142.008.03.019.056l.042.12.024.065q.022.06.045.118l.023.06a4 4 0 0 0 .068.171q.03.075.062.15t.065.153l.02.047a10 10 0 0 0 .143.31q.008.016.017.033.034.074.07.145l.007.012.081.165.088.167q.045.084.092.167.045.083.092.164l.005.01a11 11 0 0 0 .295.48q.05.081.104.16c.036.053.064.1.1.145l.038.055.079.113.004.005q.053.075.109.15l.114.152q.237.312.495.61l.113.127a12 12 0 0 0 .523.55l.004.005q.137.135.278.265a12.064 12.064 0 0 0 19.897-5.962l.004-.016q.021-.086.04-.171l.005-.017.014-.068.02-.091a6 6 0 0 0 .073-.43v-.003l.011-.085a7.4 7.4 0 0 0 .007-1.854l-.01-.072a6 6 0 0 0-.062-.394c-.01-.054-.022-.117-.035-.175l-.02-.087-.04-.173a7.4 7.4 0 0 0-.548-1.491q-.018-.04-.04-.079l-.04-.078c-.013-.028-.026-.05-.04-.078l-.043-.077q-.037-.067-.075-.133a12 12 0 0 1 1.682 5.681"/><path fill="url(#i)" d="m30.846 23.769-.023.1a10 10 0 0 1-.071.285l-.02.073-.044.162-.054.182a8 8 0 0 1-.106.333c-.018.05-.03.092-.046.137l-.04.114a8 8 0 0 1-.131.346 6 6 0 0 1-.121.298l-.023.054-.046.105c-.015.035-.027.063-.042.094l-.026.059a4 4 0 0 1-.083.177l-.054.112-.038.077-.043.085-.044.087-.058.11-.02.04-.06.11-.055.1q-.037.07-.08.139l-.055.095-.05.087-.069.113-.016.026-.07.111-.05.08-.065.094-.037.056-.092.137-.006.01-.09.126-.036.05-.1.14-.086.112-.078.102-.103.13c-.035.044-.064.081-.1.122q-.06.074-.126.152l-.14.162-.1.114-.024.027q-.06.067-.121.132l-.013.013-.103.11-.039.039q-.046.049-.094.096l-.05.05-.133.131c-.045.044-.1.093-.146.138-.047.045-.1.091-.15.136l-.099.088-.07.062q-.067.06-.138.117l-.156.13q-.067.055-.136.11l-.192.149a13.097 13.097 0 0 1-.65.46l-.006.004-.006.004h-.003l-.022.014q-.007.006-.017.011l-.011.008-.1.063a16 16 0 0 1-.485.294q-.262.153-.527.298l-.017.01-.181.095-.01.006-.131.067q-.087.045-.175.087a16 16 0 0 1-.705.328 16.7 16.7 0 0 1-3.352 1.062q-.178.038-.358.07-.596.107-1.192.17c-1.362.144-2.736.12-4.091-.072h-.017l-.165-.024-.06-.01-.143-.022-.195-.034a12 12 0 0 1-.587-.115 12 12 0 0 0 1.215.185l.202.019.18.014.092.006.131.007.202.009.199.005h.445q.075.001.15-.004h.017q.09-.001.18-.007h.035q.076-.002.153-.009l.05-.003q.083-.005.166-.012l.199-.018q.076-.007.154-.017c.052-.006.11-.012.166-.02l.022-.002.105-.014a7 7 0 0 0 .312-.047l.062-.01.151-.027h.012l.162-.03.066-.014q.054-.01.11-.023c.035-.008.06-.012.09-.02q.064-.013.129-.028l.03-.008.128-.03.1-.025.107-.028.155-.042.108-.031.12-.036.043-.013.119-.037.093-.03.09-.03.08-.028q.06-.019.118-.04l.056-.02a4 4 0 0 0 .188-.07l.097-.037.106-.042.054-.022.15-.061.148-.064.076-.033.1-.044.163-.076.109-.05q.065-.03.13-.064l.14-.07h.003l.167-.088q.084-.045.167-.092l.146-.082.065-.039.1-.058q.076-.045.152-.093l.087-.054.102-.064.007-.005q.076-.047.146-.095l.131-.089.146-.1q.01-.006.018-.013.047-.032.093-.066.044-.031.085-.062l.019-.013.138-.104q.373-.284.723-.596l.1-.088a12 12 0 0 0 .736-.728 12.065 12.065 0 0 0-5.878-19.881l-.093-.024-.204-.05c-.069-.016-.123-.026-.185-.039l-.057-.01-.075-.014-.237-.039-.064-.009-.067-.018-.088-.01-.088-.01a7 7 0 0 0-.62-.04h-.262q-.088-.001-.177.005-.046.001-.088.004l-.178.01-.088.007-.09.009a5 5 0 0 0-.265.03l-.053.008-.059.009-.089.013-.088.015a8 8 0 0 0-.95.232 7 7 0 0 0-.985.389l-.079.038q-.04.02-.078.04-.04.02-.078.04l-.079.04-.077.043-.133.075a12.068 12.068 0 0 1 18.213 10.936q-.001.064-.007.13a12 12 0 0 1-.115 1.103q0 .012-.003.023-.007.052-.017.104l-.019.112q0 .01-.003.023-.015.087-.032.174c-.01.058-.02.104-.03.155l-.036.171v.008z"/><path fill="url(#j)" d="M36.203 33.839a3.796 3.796 0 1 0 0-7.592 3.796 3.796 0 0 0 0 7.592"/></g><path fill="#fff" d="M51.502 32.36v-7.938h.297a4.4 4.4 0 0 1-1.701 2.43q-1.269.891-3.051.891-1.755 0-3.078-.837-1.296-.837-2.025-2.349-.702-1.539-.702-3.618 0-2.106.702-3.618.729-1.539 2.025-2.349 1.323-.837 3.078-.837 1.782 0 3.051.918 1.296.891 1.728 2.43h-.27v-3.105h2.133V32.36zm-3.996-6.372q1.863 0 2.943-1.296 1.107-1.323 1.107-3.753 0-2.457-1.107-3.753-1.08-1.296-2.943-1.296-1.836 0-2.943 1.296t-1.107 3.753q0 2.43 1.107 3.753 1.107 1.296 2.943 1.296M58.29 27.5V8.465h7.614q2.916 0 4.536 1.296t1.62 3.672q0 1.782-1.053 2.97-1.026 1.188-2.808 1.566v-.378q1.35.162 2.322.783a3.95 3.95 0 0 1 1.485 1.593q.513.972.513 2.295 0 1.701-.756 2.889-.729 1.161-2.133 1.755t-3.402.594zm2.16-1.782h5.562q.864 0 1.54-.135.7-.135 1.214-.405.513-.297.864-.702t.513-.972q.19-.567.19-1.269 0-.729-.19-1.269a2.5 2.5 0 0 0-.513-.972 2.75 2.75 0 0 0-.864-.702 4.4 4.4 0 0 0-1.215-.405 8 8 0 0 0-1.539-.135H60.45zm0-8.748h5.13q2.106 0 3.186-.864 1.107-.864 1.107-2.484 0-1.674-1.107-2.511-1.08-.864-3.186-.864h-5.13zM76.44 27.5V14.378h2.132v3.105h-.27q.459-1.593 1.593-2.403 1.134-.837 2.997-.972l.783-.081.162 1.89-1.377.162q-1.836.162-2.835 1.188-.972.999-.972 2.754V27.5zm13.875.243q-1.35 0-2.43-.513a4.4 4.4 0 0 1-1.674-1.458 3.6 3.6 0 0 1-.62-2.052q0-1.458.728-2.295.756-.837 2.457-1.188 1.728-.351 4.698-.351h1.215v1.431h-1.188q-1.647 0-2.754.108t-1.755.378-.918.702-.27 1.08q0 1.107.756 1.809.783.702 2.106.702 1.08 0 1.89-.513.837-.513 1.296-1.404.486-.891.486-2.052v-3.078q0-1.674-.675-2.403-.675-.756-2.214-.756-1.188 0-2.295.351-1.107.324-2.268 1.08l-.756-1.593a7.8 7.8 0 0 1 1.593-.837 9.3 9.3 0 0 1 1.863-.567 9.8 9.8 0 0 1 1.863-.189q1.701 0 2.808.567 1.107.54 1.647 1.674.54 1.107.54 2.862V27.5h-2.052v-3.051h.243q-.216 1.026-.837 1.755a4.04 4.04 0 0 1-1.485 1.134q-.891.405-1.998.405m10.117-16.632V8.654h2.7v2.457zm.27 16.389V14.378h2.187V27.5zm11.47.243q-1.755 0-3.078-.837-1.296-.837-2.025-2.349-.702-1.539-.702-3.618 0-2.106.702-3.618.729-1.539 2.025-2.349 1.323-.837 3.078-.837 1.782 0 3.051.891a4.3 4.3 0 0 1 1.701 2.403h-.297V8.465h2.187V27.5h-2.133v-3.132h.27a4.37 4.37 0 0 1-1.728 2.457q-1.269.918-3.051.918m.459-1.755q1.863 0 2.943-1.296 1.107-1.323 1.107-3.753 0-2.457-1.107-3.753-1.08-1.296-2.943-1.296-1.836 0-2.943 1.296t-1.107 3.753q0 2.43 1.107 3.753 1.107 1.296 2.943 1.296"/><defs><linearGradient id="b" x1="9.274" x2="34.059" y1="10.177" y2="16.067" gradientUnits="userSpaceOnUse"><stop stop-color="#15021e"/><stop offset=".32" stop-color="#8011c9"/><stop offset=".39" stop-color="#9a13f2"/><stop offset=".53" stop-color="#b110cc"/><stop offset=".75" stop-color="#ce0d9b"/><stop offset=".91" stop-color="#e10b7c"/><stop offset="1" stop-color="#e80a70"/></linearGradient><linearGradient id="c" x1="9.474" x2="32.95" y1="15.17" y2="20.75" gradientUnits="userSpaceOnUse"><stop stop-color="#15021e"/><stop offset=".32" stop-color="#8011c9"/><stop offset=".39" stop-color="#9a13f2"/><stop offset=".53" stop-color="#b110cc"/><stop offset=".75" stop-color="#ce0d9b"/><stop offset=".91" stop-color="#e10b7c"/><stop offset="1" stop-color="#e80a70"/></linearGradient><linearGradient id="d" x1=".393" x2="23.869" y1="13.582" y2="19.162" gradientUnits="userSpaceOnUse"><stop stop-color="#15021e"/><stop offset=".32" stop-color="#8011c9"/><stop offset=".39" stop-color="#9a13f2"/><stop offset=".53" stop-color="#b110cc"/><stop offset=".75" stop-color="#ce0d9b"/><stop offset=".91" stop-color="#e10b7c"/><stop offset="1" stop-color="#e80a70"/></linearGradient><linearGradient id="e" x1="4.412" x2="27.346" y1="18.984" y2="24.435" gradientUnits="userSpaceOnUse"><stop stop-color="#15021e"/><stop offset=".32" stop-color="#8011c9"/><stop offset=".39" stop-color="#9a13f2"/><stop offset=".53" stop-color="#b110cc"/><stop offset=".75" stop-color="#ce0d9b"/><stop offset=".91" stop-color="#e10b7c"/><stop offset="1" stop-color="#e80a70"/></linearGradient><linearGradient id="f" x1="5.995" x2="28.94" y1="9.901" y2="15.355" gradientUnits="userSpaceOnUse"><stop stop-color="#15021e"/><stop offset=".32" stop-color="#8011c9"/><stop offset=".39" stop-color="#9a13f2"/><stop offset=".53" stop-color="#b110cc"/><stop offset=".75" stop-color="#ce0d9b"/><stop offset=".91" stop-color="#e10b7c"/><stop offset="1" stop-color="#e80a70"/></linearGradient><linearGradient id="g" x1="2.674" x2="22.576" y1="9.807" y2="14.538" gradientUnits="userSpaceOnUse"><stop stop-color="#15021e"/><stop offset=".32" stop-color="#8011c9"/><stop offset=".39" stop-color="#9a13f2"/><stop offset=".53" stop-color="#b110cc"/><stop offset=".75" stop-color="#ce0d9b"/><stop offset=".91" stop-color="#e10b7c"/><stop offset="1" stop-color="#e80a70"/></linearGradient><linearGradient id="h" x1="-.717" x2="24.068" y1="18.269" y2="24.16" gradientUnits="userSpaceOnUse"><stop stop-color="#15021e"/><stop offset=".32" stop-color="#8011c9"/><stop offset=".39" stop-color="#9a13f2"/><stop offset=".53" stop-color="#b110cc"/><stop offset=".75" stop-color="#ce0d9b"/><stop offset=".91" stop-color="#e10b7c"/><stop offset="1" stop-color="#e80a70"/></linearGradient><linearGradient id="i" x1="10.766" x2="30.668" y1="19.799" y2="24.529" gradientUnits="userSpaceOnUse"><stop stop-color="#15021e"/><stop offset=".32" stop-color="#8011c9"/><stop offset=".39" stop-color="#9a13f2"/><stop offset=".53" stop-color="#b110cc"/><stop offset=".75" stop-color="#ce0d9b"/><stop offset=".91" stop-color="#e10b7c"/><stop offset="1" stop-color="#e80a70"/></linearGradient><linearGradient id="j" x1="38.964" x2="33.444" y1="32.65" y2="27.435" gradientUnits="userSpaceOnUse"><stop stop-color="#9a13f2"/><stop offset=".47" stop-color="#c30eae"/><stop offset=".82" stop-color="#de0b81"/><stop offset="1" stop-color="#e80a70"/></linearGradient><clipPath id="a"><path fill="#fff" d="M0 .5h40v33.339H0z"/></clipPath></defs></svg>
